<?xml version="1.0" encoding="utf-8"?>
<svg width="485pt" height="403pt" viewBox="0 0 485 403" version="1.1"
     xmlns="http://www.w3.org/2000/svg">
    <g id="#000000ff">
        <path fill="currentColor" opacity="1.00"
              d=" M 22.73 7.73 C 26.17 2.89 32.17 0.05 38.10 0.77 C 44.07 1.16 48.42 5.69 53.02 8.96 C 56.47 11.85 60.64 13.98 63.47 17.55 C 65.47 20.27 63.40 23.42 61.71 25.67 C 51.76 38.76 41.89 51.90 32.01 65.04 C 30.59 67.18 28.32 68.41 26.06 69.48 C 19.14 65.75 13.28 60.46 6.95 55.87 C -0.02 50.70 -1.42 39.70 3.87 32.87 C 10.05 24.41 16.48 16.13 22.73 7.73 Z"/>
        <path fill="currentColor" opacity="1.00"
              d=" M 271.43 10.51 C 280.00 7.94 289.97 14.18 291.27 23.05 C 292.37 28.84 289.90 34.71 286.09 38.99 C 282.45 43.10 277.67 46.82 272.01 47.27 C 267.99 47.53 264.54 44.70 262.59 41.41 C 259.45 36.27 259.06 29.98 259.65 24.13 C 260.27 17.73 265.22 12.08 271.43 10.51 Z"/>
        <path fill="currentColor" opacity="1.00"
              d=" M 214.31 30.50 C 222.54 26.66 233.18 35.11 230.85 44.02 C 228.88 52.58 227.43 61.26 227.04 70.05 C 227.36 74.53 220.57 76.56 218.23 72.81 C 211.23 64.14 206.95 53.14 206.72 41.95 C 206.60 37.04 209.88 32.44 214.31 30.50 Z"/>
        <path fill="currentColor" opacity="1.00"
              d=" M 67.42 38.41 C 69.59 34.73 74.78 34.30 77.81 37.16 C 93.13 48.61 108.36 60.17 123.64 71.68 C 127.18 67.17 130.43 62.44 134.05 57.99 C 137.06 54.08 143.15 53.04 147.27 55.77 C 150.29 57.74 153.14 59.97 155.97 62.21 C 157.73 63.55 159.04 65.57 158.97 67.85 C 158.30 71.05 155.93 73.48 154.07 76.05 C 137.09 98.51 120.21 121.04 103.23 143.50 C 101.44 146.14 97.84 148.03 94.85 146.13 C 91.15 143.94 87.76 141.23 84.52 138.42 C 80.88 135.17 80.50 129.20 83.30 125.31 C 86.62 120.65 90.22 116.20 93.54 111.55 C 78.25 100.20 63.12 88.64 47.89 77.22 C 44.06 75.05 43.25 69.50 46.32 66.34 C 53.41 57.07 60.28 47.63 67.42 38.41 Z"/>
        <path fill="currentColor" opacity="1.00"
              d=" M 286.94 64.84 C 296.61 61.18 306.80 59.12 316.98 57.48 C 323.98 57.29 331.02 56.99 338.01 57.55 C 341.39 58.00 344.74 58.59 348.16 58.70 C 354.00 60.39 360.10 61.12 365.82 63.27 C 399.90 74.93 430.86 95.32 455.52 121.52 C 463.95 130.94 472.74 140.51 477.64 152.35 C 482.47 163.19 485.19 175.06 484.77 186.96 C 484.43 194.31 484.85 201.71 483.82 209.01 C 482.93 217.61 483.71 226.42 481.92 234.88 C 481.65 239.94 481.74 245.00 481.46 250.05 C 479.96 263.48 480.78 277.12 478.23 290.44 C 474.59 303.65 464.65 315.08 451.62 319.66 C 443.79 323.01 434.88 321.80 427.05 325.07 C 420.96 328.05 416.15 333.80 414.64 340.46 C 411.69 352.61 408.84 364.79 405.92 376.95 C 404.28 383.59 403.39 391.09 398.15 396.05 C 395.31 399.43 391.02 400.77 387.09 402.42 C 383.33 402.47 379.56 402.73 375.82 402.36 C 372.84 401.50 371.09 398.76 369.48 396.32 C 369.07 384.89 369.21 373.44 369.50 362.01 C 369.77 354.13 360.71 347.58 353.40 350.69 C 347.87 352.45 344.58 358.35 344.75 363.96 C 344.75 375.06 344.72 386.15 344.79 397.25 C 342.62 399.48 340.60 402.95 337.00 402.51 C 331.69 402.52 326.38 402.53 321.08 402.51 C 316.61 402.79 312.37 398.95 312.42 394.41 C 311.72 382.94 313.21 371.42 312.03 359.96 C 311.29 354.97 306.87 350.98 302.01 350.09 C 295.41 349.02 288.44 354.15 287.85 360.90 C 287.08 372.27 287.81 383.68 287.47 395.06 C 287.51 398.64 284.30 401.56 281.03 402.37 C 276.58 402.63 271.91 403.00 267.67 401.33 C 261.50 399.16 256.32 394.11 254.28 387.86 C 252.20 381.33 251.22 374.51 249.43 367.90 C 247.09 359.02 245.18 350.03 243.00 341.12 C 241.13 332.12 233.30 324.50 224.12 323.32 C 220.07 322.68 216.05 321.82 211.94 321.56 C 199.34 318.73 188.04 310.31 182.33 298.65 C 176.55 287.00 177.33 273.71 176.05 261.11 C 175.44 248.44 174.64 235.76 174.50 223.08 C 191.62 229.82 208.82 236.37 225.92 243.18 C 230.28 244.72 232.86 248.81 236.14 251.80 C 242.90 259.07 254.08 261.92 263.47 258.63 C 269.07 256.78 273.72 253.02 278.10 249.19 C 294.44 235.07 307.68 216.86 314.02 196.07 C 317.18 183.35 309.36 168.97 296.92 164.79 C 291.25 162.44 284.02 162.23 280.29 156.67 C 265.00 135.45 249.93 114.07 234.78 92.76 C 250.76 81.10 268.40 71.73 286.94 64.84 M 357.90 165.82 C 346.88 171.16 340.31 184.51 343.49 196.46 C 350.71 219.44 366.13 239.22 385.07 253.82 C 391.68 259.02 400.75 261.48 408.95 259.02 C 418.33 256.64 424.81 248.76 430.34 241.34 C 437.82 230.39 443.47 217.50 443.53 204.06 C 443.46 192.70 434.53 184.07 425.64 178.30 C 416.37 172.29 405.89 168.12 395.03 166.09 C 388.44 164.44 381.67 163.50 374.89 163.23 C 369.13 162.13 363.12 163.22 357.90 165.82 M 324.29 244.43 C 321.35 245.53 319.43 248.22 317.85 250.80 C 312.08 260.76 307.06 271.20 303.45 282.14 C 300.50 291.37 307.33 302.16 316.96 303.27 C 324.28 303.66 331.63 303.58 338.96 303.36 C 349.62 303.26 357.47 290.86 353.56 281.08 C 349.57 269.84 344.63 258.86 338.30 248.74 C 335.55 244.02 329.21 242.50 324.29 244.43 Z"/>
        <path fill="currentColor" opacity="1.00"
              d=" M 170.38 77.49 C 173.21 76.70 176.13 77.99 178.33 79.73 C 212.04 107.78 244.39 137.63 273.21 170.73 C 276.72 174.85 281.43 179.00 281.24 184.90 C 280.74 193.94 280.39 203.03 281.18 212.07 C 281.58 216.04 279.15 220.00 275.40 221.37 C 267.99 224.31 260.70 227.57 253.91 231.78 C 249.62 234.59 244.12 234.76 239.60 232.39 C 196.05 212.88 154.90 188.34 115.66 161.27 C 111.78 158.99 111.09 153.32 113.79 149.88 C 118.08 143.83 122.76 138.07 127.12 132.08 C 128.85 129.88 130.64 126.65 133.98 127.50 C 136.89 128.47 139.09 130.84 141.59 132.56 C 178.87 160.34 217.72 186.26 259.04 207.67 C 259.71 206.47 261.08 205.50 261.08 204.02 C 260.11 202.33 258.70 200.95 257.38 199.54 C 225.09 166.62 189.88 136.65 152.99 109.02 C 150.86 107.58 148.37 104.93 149.90 102.21 C 153.96 95.91 158.89 90.22 163.25 84.13 C 165.25 81.60 167.00 78.32 170.38 77.49 Z"/>
        <path fill="currentColor" opacity="1.00"
              d=" M 107.44 210.66 C 123.04 207.42 139.60 211.00 153.39 218.67 C 156.66 220.30 158.05 224.84 155.99 227.93 C 154.48 230.49 151.35 231.09 148.68 231.72 C 138.82 233.73 129.24 236.97 120.00 240.95 C 114.47 243.37 107.49 243.26 102.65 239.36 C 97.49 235.54 94.75 228.62 96.42 222.34 C 97.91 217.01 102.06 212.26 107.44 210.66 Z"/>
        <path fill="currentColor" opacity="1.00"
              d=" M 139.37 261.46 C 143.97 260.67 149.52 260.31 153.18 263.78 C 156.92 267.02 158.02 272.27 157.94 277.02 C 157.65 284.56 155.38 292.42 149.97 297.92 C 145.40 302.65 138.20 304.01 131.92 302.81 C 121.29 300.73 114.48 288.23 118.15 278.10 C 121.40 269.17 130.35 263.35 139.37 261.46 Z"/>
    </g>
</svg>
