<?xml version="1.0" encoding="utf-8"?>
<!-- Generator: Adobe Illustrator 24.0.1, SVG Export Plug-In . SVG Version: 6.00 Build 0)  -->
<svg version="1.1" id="Слой_1" xmlns="http://www.w3.org/2000/svg" xmlns:xlink="http://www.w3.org/1999/xlink" x="0px" y="0px"
     viewBox="0 0 700 700.1" style="enable-background:new 0 0 700 700.1;" xml:space="preserve" fill="currentColor">
<g id="_x23_ffffffff">
</g>
    <g id="_x23_000000ff">
	<path d="M330,7.1c3.7-3,8.3-4.8,12.5-6.9c5.1-0.1,10.3-0.3,15.4,0.1c4,2.2,8.5,3.7,12,6.7c97.7,97.7,195.3,195.4,293,293
		c1.7,1.8,3.8,3.3,5.1,5.5c0.6,2.3-1.3,3.7-2.8,5c-6.3,5.3-11.8,11.4-18.2,16.6c-8.1,8.2-17,15.6-25.1,23.9
		c-20.8,20.5-41.3,41.3-62.1,61.9c-4.8,4.2-9.5,8.7-14.1,13.1c-7,5.9-13.2,12.7-20.2,18.6c-24.4,23.7-48.1,48-72.2,71.9
		c-6.8,5.8-13,12.3-19.8,18.1c-10.2,10.2-21.1,19.6-31.1,29.9c-17.4,17.2-34.4,34.7-52,51.7c-6.9-5.2-12.8-11.7-19-17.8
		c-23.7-23.6-47.2-47.5-71.1-70.9c-7.4-6.2-13.8-13.5-21.2-19.8c-27-25-52.4-51.6-78.6-77.4c-10.6-10.4-20.9-21.1-32-30.9
		c-11.4-11.3-23.6-21.8-34.9-33.3c-19.2-19.1-38.1-38.5-57.6-57.4c-1.4-1.3-2.7-2.7-3.8-4.3C131.7,205.6,230.7,106.1,330,7.1
		 M323.9,156.2c-18.9,2.6-37.3,13.8-45.1,31.6c-8,16.9-6.9,36.9-1,54.3c0.7,2.5,2.9,5,5.7,4.9c3.3,0.4,6-2.5,6.9-5.4
		c11.5-30.2,33.5-56.4,61.8-72.3c3.7-1.7,5-6.8,2.7-10.1c-1.9-2.7-5.5-2.7-8.5-3.2C338.9,155.7,331.3,155.5,323.9,156.2
		 M382.1,167.6c-5.2,1-10.4,2.1-15.1,4.5c-3.7,2.9-2.9,9.6,1.7,11.1c29.1,11,52.3,37.2,58.4,67.9c0.7,3.5,4.5,6.1,8.1,5.2
		c1.8-0.7,3.3-2.1,4.3-3.8c8.1-15.4,10.2-34.4,3.8-50.8c-3.6-9.8-10.5-18-18.6-24.3C412.6,168.4,396.8,165.2,382.1,167.6
		 M353.9,195.1c-12.5,3-21.8,13.1-28.1,23.8c-1.4,3,0.5,6.4,3.1,8c5.1,1.1,10-1.6,15-2.1c14.1-2.8,28.7-1.8,42.5,1.9
		c4.9,1.8,10.5-5,7.2-9.4c-4.8-7.9-11.4-15-19.6-19.4C367.9,194.4,360.7,194.1,353.9,195.1 M255.9,228c-1.9,1.1-3.1,3-4.3,4.7
		c-4.7,7.2-8,15.4-9.5,23.9c-2.5,12.2-0.4,25.2,5,36.4c7.7,15.6,22.7,27.7,39.9,31.1c9.6,2.3,19.6,1.8,29.1-0.8
		c4.8-1.8,4.9-9.5,0.2-11.5c-26-14.6-45.4-41-50.2-70.5c-0.4-3.5-0.3-7.2-1.6-10.6C262.9,227.8,258.8,226.1,255.9,228 M350.9,238.1
		c-6.1,0.7-12,3.2-17,6.8c-2.5,1.7-3.7,5.4-1.9,8c8.7,15.2,29.4,21.6,45.3,14.4c3.9-2,9.4-3.7,9.9-8.8c-0.8-5.4-5.4-9-9-12.6
		C370.5,239.8,360.4,236.8,350.9,238.1 M305,250.1c-1.2,0.8-2.3,1.7-2.8,3.1c-2.1,8.8-1.8,18.2,0.8,26.9c2.7,8.6,9.2,16.1,17.7,19.2
		c10.5,4,22.2,2.4,32.7-0.9c5.1-1.9,5.5-9.9,0.3-12c-16.3-7.2-30.5-18.9-40.3-33.9C311.8,249.4,308,249.1,305,250.1 M407.8,250.9
		c-4.8,1-5.4,6.5-6.8,10.3c-6.4,17.7-18.5,33.5-34.5,43.5c-2.5,1.7-6.2,3.4-6.1,7c-0.6,3.6,2.6,6.6,6,7.2c10.1,0.8,20.6-0.1,30-4.4
		c11.7-5.3,20.4-16.7,22.5-29.4c1.4-10.4,0.3-21.2-4-30.9C413.6,251.7,410.5,250.1,407.8,250.9 M448.9,262.8c-2.7,1.8-3,5.3-3.8,8.2
		c-3.1,13.1-9.2,25.4-16.9,36.3c-10.3,14.7-24.1,27.1-40.5,34.5c-3.4,1.3-5.4,5.7-3.4,8.9c2.1,4.2,7.5,3.9,11.5,4.8
		c14,1.9,28.5-1.6,40.2-9.5c13.2-8.8,23.3-22.5,27-38.1c3.7-14.3,2-29.9-4.9-43C456.5,261.6,451.8,261.1,448.9,262.8 M266.9,331.8
		c-2.8,1.3-4.7,4.5-3.8,7.5c3.9,10.3,11,19.1,19.7,25.9c19.7,14.6,48.9,14.9,68.6,0.2c7.6-5.4,13.5-13,17.6-21.3
		c0.5-2.5,0.9-5.9-1.5-7.5c-2.2-2.3-5.9-1.8-8.5-0.5c-27.7,11.5-60.5,10.2-86.9-4.2C270.4,331.1,268.4,331,266.9,331.8 M359.6,378.6
		c0.2,3.6,0.6,7.1,1,10.7c1.3,15.4-0.8,31.2-7.4,45.2c-6.8,14.6-18.3,26.6-31.7,35.4c3.5,5.6,7.5,10.9,11.3,16.3
		c0.7,0.8,1.2,2.2,2.5,2.2c8.6-5.1,15.8-12.2,22.7-19.3c11.3-11.8,19.4-26.4,23.9-42.1c7.8-3.2,16.4-4.1,24.7-2.4
		c2.3,0.7,4.4-1.6,4.5-3.8c-2-4.9-5.8-8.9-10.3-11.6c-5.1-3-10.9-4.4-16.5-6.2c0.2-11-1.7-21.8-4.4-32.4
		C373.1,373.2,366.7,376.8,359.6,378.6z"/>
        <path d="M10.5,326.5c2-2.2,5.5-5.4,8.4-2.7c27.2,26.5,53.4,54.1,81.1,80.2c6.7,6.6,13.3,13.3,20.4,19.4
		c7.3,7.4,15.4,14.1,22.7,21.5c27.3,27,54,54.7,81.9,81c13.3,13.4,27.8,25.5,41,39c22.1,21.9,43.9,44.2,66.2,65.9c0,1,0,2,0,3.1
		c-10.4,8.8-19.8,18.7-29.8,27.8c-3.3,1.7-5.3-1.9-7.4-3.8C199.1,562.2,103.2,466.3,7.4,370.5c-3.3-4-5.2-9.1-7.4-13.8
		c-0.1-4.4-0.1-8.9,0-13.3C2.9,337.4,5.3,330.9,10.5,326.5z"/>
        <path d="M679.9,327.9c2.1-1.9,4.1-5.4,7.4-3.7c3.1,3.2,6.7,6,8.7,10.2c1.3,2.7,2.6,5.3,4,7.9c0.2,5.1,0.2,10.2,0,15.3
		c-2.3,4.1-3.7,8.8-6.8,12.3c-95.8,95.9-191.7,191.7-287.5,287.6c-2.2,2-4.5,6.1-7.9,4c-8-7.8-15.7-15.8-24.1-23.2
		c-2.2-2.2-4.9-4-6.1-7c23.2-22.6,45.3-46.3,69.3-68c6.6-5.6,12.4-12,19-17.6c22.3-21.7,44.1-43.9,66.2-65.8
		c6.9-7.2,14.6-13.4,21.5-20.5c24.9-22.4,48.2-46.4,71.9-70c8.9-8.8,17.5-17.9,26.9-26.1c5.3-5.4,11.2-10.1,16.5-15.5
		C665.7,341.1,673.2,334.9,679.9,327.9z"/>
        <path d="M337.3,660.4c4.5-3.8,8-8.7,13.1-11.7c6.8,5.4,12.7,11.8,19.1,17.7c4,3.8,8.2,7.4,12,11.3c1.5,1.8,0.2,4.3-1.5,5.5
		c-5.4,4.6-9.4,10.9-16.1,13.7c-2.8,1-5.3,3.5-8.5,3.1c-4.4-0.1-8.7,0.1-13.1-0.1c-4.2-2.2-8.7-3.9-12.4-6.9
		c-3.8-3.7-7.5-7.4-11.2-11.1c-1.7-1.2-1.3-3.7,0.3-4.7C325.3,671.8,331,665.7,337.3,660.4z"/>
</g>
</svg>
