<?xml version="1.0" encoding="utf-8"?>
<!-- Generator: Adobe Illustrator 24.0.1, SVG Export Plug-In . SVG Version: 6.00 Build 0)  -->
<svg version="1.1" id="Слой_1" xmlns="http://www.w3.org/2000/svg" xmlns:xlink="http://www.w3.org/1999/xlink" x="0px" y="0px"
     viewBox="0 0 700 700.1" style="enable-background:new 0 0 700 700.1;" xml:space="preserve" fill="currentColor">
<g id="_x23_ffffffff">
</g>
    <g id="_x23_000000ff">
	<path d="M333.9,4.4c2.8-1.4,5.6-2.6,8.3-4.1c4.8-0.4,9.6-0.1,14.4-0.2c2.3-0.2,3.8,1.9,5.8,2.6c2.9,1,5.8,2.5,8.1,4.7
		c99,99.1,198.1,198.1,297.1,297.3c1.9,2.8-1.5,5-3.3,6.7c-6.4,5.3-11.9,11.4-18.1,16.9c-30.1,27.2-57.9,56.8-86.9,85.1
		c-12.8,11.8-25.6,23.7-38.3,35.7c-15.6,15-30.8,30.6-46.1,45.8c-9.1,8.9-17.7,18.3-27.3,26.7c-14.8,14.2-30.2,27.8-44.6,42.4
		c-16.5,16.5-33,32.9-49.4,49.5c-1.3,1.9-3.9,2.3-5.7,0.9c-23.2-22.2-45.5-45.4-68.4-68c-25.5-25.6-52.7-49.3-77.9-75.1
		c-14.1-14.2-28.4-28.3-42.5-42.5c-15.5-15.2-31.2-30.2-47.1-44.9c-27.1-26-53.2-53.2-80.1-79.4c10.9-9.5,20.7-20.4,31.2-30.5
		c87.1-87.3,174.3-174.4,261.4-261.6C327.5,9.6,330.1,6.2,333.9,4.4z"/>
        <path d="M9.4,327.5c2.1-2.6,5.6-3.8,7.1-6.8c0.1,0.4,0.2,1.3,0.3,1.7c2.3,1.6,4.3,3.5,6.3,5.4c29.7,29.3,58.6,59.4,89.1,87.9
		c27.4,24.9,53.1,51.6,79.3,77.7c21.3,21.4,43.4,41.9,65.4,62.6c14.5,14.2,28.7,28.6,43.1,42.9c10.9,10.8,21.5,21.9,32.7,32.3
		c0.7,2.3-2,3.6-3.3,5.1c-9.8,8.4-18.4,18-28.2,26.3c-3.3-0.2-4.9-4-7.4-5.7c-0.3-0.4-0.9-1.2-1.2-1.6c-0.5-0.3-1.4-0.8-1.9-1.1
		c-0.3-0.5-0.8-1.4-1.1-1.9c-0.4-0.3-1.3-0.9-1.7-1.2c-24.1-24.6-48.7-48.8-73-73.2C145.8,508.8,76.6,439.7,7.5,370.5
		c-3.4-3.7-5.1-8.6-7.4-13.1c-0.1-4.9-0.2-9.9,0-14.8C2.9,337.4,4.8,331.5,9.4,327.5z"/>
        <path d="M683,324.8c0.9-0.9,2.1-1.2,3.5-0.9c6.6,4.4,10.2,11.6,13.4,18.6c0.2,5,0.1,10,0,15c-2.2,4.2-3.7,8.9-6.8,12.5
		c-95.8,95.9-191.7,191.7-287.5,287.6c-2.2,2-4.5,6.2-7.9,4c-9.1-9-18.2-18.1-27.7-26.6c-1.8-1.4-1.8-4.6,0-5.9
		c15.9-15.8,31.7-31.7,47.6-47.6c19.8-18.8,40.2-37.1,59.5-56.5c12.6-12.7,25.3-25.3,38-38c13-13.4,27.1-25.6,40.6-38.6
		c33.3-30.7,63.6-64.5,97.2-94.8c7.6-6.7,14.4-14.2,22-20.8C677.6,330.2,680.3,327.5,683,324.8z"/>
        <path d="M349.6,649c0.2-0.1,0.7-0.4,0.9-0.5c3,2,5.2,4.9,7.8,7.2c7.4,6.9,14.7,14,22.1,20.9c1,0.9,1.9,1.9,2.4,3.2
		c-2.1,4.1-6.3,6.5-9.2,10c-3.2,3.9-7.4,6.6-12,8.4c-4.4,3.3-10.1,1.5-15.2,2c-5.2,0.7-9.4-3-13.8-5c-5.4-4.1-9.8-9.3-14.6-14
		c-1-3.2,2.3-4.9,4.3-6.8C331.4,665.9,340.3,657.1,349.6,649z"/>
</g>
</svg>
