<?xml version="1.0" encoding="UTF-8" ?>
<!DOCTYPE svg PUBLIC "-//W3C//DTD SVG 1.1//EN" "http://www.w3.org/Graphics/SVG/1.1/DTD/svg11.dtd">
<svg width="203pt" height="269pt" viewBox="0 0 203 269" version="1.1" xmlns="http://www.w3.org/2000/svg">
<g id="#b33d00ff">
<path fill="#b33d00" opacity="1.00" d=" M 58.49 0.00 L 61.20 0.00 C 63.15 0.19 65.10 0.47 67.03 0.80 C 102.94 7.32 138.84 13.82 174.74 20.34 C 180.02 21.31 185.60 21.85 190.22 24.81 C 196.69 28.58 200.99 35.49 202.11 42.82 C 202.77 47.97 201.30 53.05 200.48 58.10 C 189.36 121.42 178.27 184.75 167.16 248.08 C 165.82 256.15 160.20 263.23 152.72 266.50 C 151.29 262.69 149.86 258.87 148.45 255.04 C 151.65 252.53 154.41 249.19 154.92 245.01 C 165.95 182.01 176.99 119.00 188.10 56.00 C 188.88 50.76 191.08 44.89 188.06 39.96 C 186.09 36.30 182.11 34.42 178.17 33.76 C 142.67 27.33 107.17 20.89 71.68 14.45 C 65.89 13.46 59.84 11.37 54.07 13.66 C 52.61 9.81 51.16 5.95 49.77 2.07 C 52.56 0.98 55.50 0.26 58.49 0.00 Z" />
<path fill="#b33d00" opacity="1.00" d=" M 58.35 49.46 C 60.86 47.41 64.15 46.98 67.23 46.49 L 67.68 47.55 C 69.38 51.45 70.84 55.45 72.25 59.47 C 70.17 59.57 68.09 59.58 66.02 59.60 C 59.47 96.58 53.02 133.58 46.53 170.57 C 45.78 177.73 44.49 184.79 43.36 191.89 C 48.12 193.58 52.91 195.93 55.82 200.23 C 59.44 204.75 60.00 210.68 59.97 216.25 C 77.50 219.53 95.07 222.63 112.62 225.83 C 113.90 222.30 115.15 218.60 117.72 215.77 C 121.03 211.94 125.82 209.67 130.76 208.86 C 132.36 212.94 133.92 217.03 135.32 221.19 C 133.06 221.33 130.56 221.21 128.68 222.71 C 125.10 225.00 125.11 229.71 122.99 233.02 C 120.25 237.19 114.85 239.19 110.02 238.05 C 92.70 234.91 75.38 231.74 58.05 228.63 C 53.94 228.00 50.16 225.41 48.37 221.62 C 46.07 217.37 48.84 212.10 46.09 208.00 C 44.37 204.94 40.65 204.47 37.71 203.22 C 32.40 201.26 29.43 195.15 30.52 189.70 C 38.15 146.02 45.87 102.35 53.48 58.66 C 54.05 55.18 55.40 51.60 58.35 49.46 Z" />
<path fill="#b33d00" opacity="1.00" d=" M 87.46 100.15 C 95.46 97.04 104.54 96.40 112.72 99.25 C 122.94 102.58 131.44 110.66 135.30 120.69 C 141.00 134.84 136.91 152.40 125.15 162.23 C 122.00 164.97 118.29 166.93 114.53 168.66 C 113.00 164.69 111.45 160.74 109.88 156.79 C 117.32 153.73 123.23 147.02 124.71 139.04 C 127.30 128.05 120.73 115.96 110.28 111.81 C 104.63 109.39 98.07 109.80 92.35 111.83 C 91.02 107.82 89.39 103.91 87.46 100.15 Z" />
</g>
<g id="#94331bff">
<path fill="#94331b" opacity="1.00" d=" M 35.72 20.83 C 36.93 12.71 42.40 5.59 49.77 2.07 C 51.16 5.95 52.61 9.81 54.07 13.66 C 50.83 16.21 48.34 19.75 47.92 23.93 C 36.90 86.94 25.85 149.94 14.76 212.94 C 13.85 218.33 11.81 224.66 15.52 229.48 C 18.44 233.92 24.12 234.54 28.90 235.40 C 65.85 242.02 102.79 248.75 139.71 255.49 C 142.62 255.91 145.60 255.71 148.45 255.04 C 149.86 258.87 151.29 262.69 152.72 266.50 C 148.06 268.45 142.87 268.96 137.92 267.96 C 98.72 260.80 59.50 253.76 20.32 246.57 C 7.95 244.23 -1.20 231.30 0.97 218.85 C 12.54 152.84 24.14 86.83 35.72 20.83 Z" />
<path fill="#94331b" opacity="1.00" d=" M 81.02 34.00 C 83.96 30.62 88.70 29.48 93.00 30.36 C 110.33 33.45 127.65 36.64 144.98 39.77 C 149.02 40.39 152.75 42.89 154.51 46.63 C 157.07 51.02 153.88 56.72 157.16 60.84 C 159.13 63.67 162.83 63.98 165.73 65.37 C 170.87 67.54 173.60 73.61 172.39 78.97 C 165.10 120.73 157.73 162.48 150.43 204.25 C 149.75 207.84 149.48 211.61 147.91 214.96 C 145.63 219.43 140.30 222.31 135.32 221.19 C 133.92 217.03 132.36 212.94 130.76 208.86 C 132.83 208.74 134.91 208.73 136.99 208.70 C 143.60 170.84 150.27 132.98 156.90 95.11 C 157.96 88.93 159.20 82.78 159.99 76.55 C 154.50 74.87 149.16 71.85 146.20 66.75 C 143.25 62.48 143.03 57.17 143.05 52.17 C 125.56 48.80 107.98 45.88 90.49 42.49 C 89.07 46.16 87.72 50.02 84.94 52.93 C 81.66 56.55 77.06 58.78 72.25 59.47 C 70.84 55.45 69.38 51.45 67.68 47.55 C 70.20 47.02 73.07 46.98 75.07 45.12 C 78.45 42.26 77.86 37.05 81.02 34.00 Z" />
<path fill="#94331b" opacity="1.00" d=" M 70.63 114.62 C 74.60 108.21 80.63 103.25 87.46 100.15 C 89.39 103.91 91.02 107.82 92.35 111.83 C 85.36 114.99 79.85 121.34 78.35 128.94 C 75.30 140.50 82.78 153.28 93.97 157.04 C 99.09 158.95 104.77 158.52 109.88 156.79 C 111.45 160.74 113.00 164.69 114.53 168.66 C 105.74 171.74 95.72 171.78 87.15 167.97 C 79.84 164.79 73.70 159.10 69.75 152.20 C 63.27 140.75 63.63 125.76 70.63 114.62 Z" />
</g>
<g id="#d95819ff">
<path fill="#d95819" opacity="1.00" d=" M 54.07 13.66 C 59.84 11.37 65.89 13.46 71.68 14.45 C 107.17 20.89 142.67 27.33 178.17 33.76 C 182.11 34.42 186.09 36.30 188.06 39.96 C 191.08 44.89 188.88 50.76 188.10 56.00 C 176.99 119.00 165.95 182.01 154.92 245.01 C 154.41 249.19 151.65 252.53 148.45 255.04 C 145.60 255.71 142.62 255.91 139.71 255.49 C 102.79 248.75 65.85 242.02 28.90 235.40 C 24.12 234.54 18.44 233.92 15.52 229.48 C 11.81 224.66 13.85 218.33 14.76 212.94 C 25.85 149.94 36.90 86.94 47.92 23.93 C 48.34 19.75 50.83 16.21 54.07 13.66 M 81.02 34.00 C 77.86 37.05 78.45 42.26 75.07 45.12 C 73.07 46.98 70.20 47.02 67.68 47.55 L 67.23 46.49 C 64.15 46.98 60.86 47.41 58.35 49.46 C 55.40 51.60 54.05 55.18 53.48 58.66 C 45.87 102.35 38.15 146.02 30.52 189.70 C 29.43 195.15 32.40 201.26 37.71 203.22 C 40.65 204.47 44.37 204.94 46.09 208.00 C 48.84 212.10 46.07 217.37 48.37 221.62 C 50.16 225.41 53.94 228.00 58.05 228.63 C 75.38 231.74 92.70 234.91 110.02 238.05 C 114.85 239.19 120.25 237.19 122.99 233.02 C 125.11 229.71 125.10 225.00 128.68 222.71 C 130.56 221.21 133.06 221.33 135.32 221.19 C 140.30 222.31 145.63 219.43 147.91 214.96 C 149.48 211.61 149.75 207.84 150.43 204.25 C 157.73 162.48 165.10 120.73 172.39 78.97 C 173.60 73.61 170.87 67.54 165.73 65.37 C 162.83 63.98 159.13 63.67 157.16 60.84 C 153.88 56.72 157.07 51.02 154.51 46.63 C 152.75 42.89 149.02 40.39 144.98 39.77 C 127.65 36.64 110.33 33.45 93.00 30.36 C 88.70 29.48 83.96 30.62 81.02 34.00 Z" />
</g>
<g id="#ff5f23ff">
<path fill="#ff5f23" opacity="1.00" d=" M 84.94 52.93 C 87.72 50.02 89.07 46.16 90.49 42.49 C 107.98 45.88 125.56 48.80 143.05 52.17 C 143.03 57.17 143.25 62.48 146.20 66.75 C 149.16 71.85 154.50 74.87 159.99 76.55 C 159.20 82.78 157.96 88.93 156.90 95.11 C 150.27 132.98 143.60 170.84 136.99 208.70 C 134.91 208.73 132.83 208.74 130.76 208.86 C 125.82 209.67 121.03 211.94 117.72 215.77 C 115.15 218.60 113.90 222.30 112.62 225.83 C 95.07 222.63 77.50 219.53 59.97 216.25 C 60.00 210.68 59.44 204.75 55.82 200.23 C 52.91 195.93 48.12 193.58 43.36 191.89 C 44.49 184.79 45.78 177.73 46.53 170.57 C 53.02 133.58 59.47 96.58 66.02 59.60 C 68.09 59.58 70.17 59.57 72.25 59.47 C 77.06 58.78 81.66 56.55 84.94 52.93 M 87.46 100.15 C 80.63 103.25 74.60 108.21 70.63 114.62 C 63.63 125.76 63.27 140.75 69.75 152.20 C 73.70 159.10 79.84 164.79 87.15 167.97 C 95.72 171.78 105.74 171.74 114.53 168.66 C 118.29 166.93 122.00 164.97 125.15 162.23 C 136.91 152.40 141.00 134.84 135.30 120.69 C 131.44 110.66 122.94 102.58 112.72 99.25 C 104.54 96.40 95.46 97.04 87.46 100.15 Z" />
</g>
<g id="#ff8425ff">
<path fill="#ff8425" opacity="1.00" d=" M 92.35 111.83 C 98.07 109.80 104.63 109.39 110.28 111.81 C 120.73 115.96 127.30 128.05 124.71 139.04 C 123.23 147.02 117.32 153.73 109.88 156.79 C 104.77 158.52 99.09 158.95 93.97 157.04 C 82.78 153.28 75.30 140.50 78.35 128.94 C 79.85 121.34 85.36 114.99 92.35 111.83 Z" />
</g>
</svg>
