<?xml version="1.0" encoding="utf-8"?>
<!-- Generator: Adobe Illustrator 24.0.1, SVG Export Plug-In . SVG Version: 6.00 Build 0)  -->
<svg version="1.1" id="Слой_1" xmlns="http://www.w3.org/2000/svg" xmlns:xlink="http://www.w3.org/1999/xlink" x="0px" y="0px"
	 viewBox="0 0 203 269" enable-background="new 0 0 203 269" xml:space="preserve">
<g id="Слой_2">
	<polygon fill="#94331B" points="49.75,2.09 6.33,221.55 13.26,235.67 144,263.67 152.73,266.49 159,251.88 196.67,44 184.67,28.33 
			"/>
</g>
<g id="_x23_b33d00ff">
	<path fill="#B33D00" d="M58.69,0h2.22c2.06,0.18,4.11,0.45,6.15,0.8c38.09,6.91,76.19,13.83,114.28,20.72
		c12.8,1.81,22.73,14.83,20.7,27.66c-11.61,66.33-23.26,132.65-34.89,198.97c-1.36,8.04-6.96,15.1-14.42,18.34
		c-1.44-3.81-2.87-7.63-4.3-11.45c3.23-2.48,5.99-5.83,6.48-10c11.1-63.31,22.18-126.62,33.34-189.91
		c0.78-4.97,2.73-10.54-0.19-15.19c-1.97-3.66-5.95-5.55-9.9-6.19c-35.5-6.41-70.98-12.86-106.47-19.3
		c-5.79-0.97-11.82-3.11-17.58-0.79c-1.5-3.84-2.96-7.69-4.36-11.57C52.6,0.94,55.61,0.21,58.69,0z"/>
	<path fill="#B33D00" d="M53.84,56.96c0.99-6.36,7.26-10.38,13.4-10.43l0.41,0.99c1.72,3.92,3.18,7.94,4.65,11.95
		c-2.09,0.1-4.19,0.11-6.29,0.13c-6.57,37.24-13.1,74.5-19.61,111.76c-0.61,6.91-2.03,13.7-3.04,20.56
		c4.29,1.52,8.65,3.47,11.54,7.14c4.24,4.65,5.26,11.11,5.04,17.18c17.55,3.28,35.14,6.4,52.71,9.59c1.16-3.33,2.31-6.79,4.62-9.53
		c3.31-4.11,8.31-6.61,13.47-7.45c1.64,4,2.98,8.11,4.68,12.08c-2.5,0.4-5.33,0.38-7.33,2.18c-2.52,1.89-2.88,5.21-4.07,7.91
		c-2.09,5.39-8.44,8.41-13.99,7.04c-17.33-3.16-34.66-6.31-51.99-9.43c-4.4-0.64-8.34-3.63-10-7.77c-1.79-4.12,0.75-9.05-1.96-12.91
		c-1.76-2.99-5.44-3.49-8.37-4.72c-5.32-1.96-8.31-8.12-7.18-13.57C38.29,145.42,46,101.18,53.84,56.96z"/>
	<path fill="#B33D00" d="M87.57,100.13c7.96-3.13,17-3.71,25.13-0.88c9.96,3.24,18.32,10.99,22.29,20.69
		c5.83,13.61,2.52,30.61-8.24,40.85c-3.6,3.33-7.75,6.24-12.49,7.67c-1.31-3.96-2.81-7.84-4.4-11.68
		c7.18-2.92,12.98-9.27,14.65-16.91c3.02-10.93-3.2-23.31-13.57-27.76c-5.78-2.74-12.67-2.41-18.58-0.26
		C91.01,107.84,89.42,103.93,87.57,100.13z"/>
</g>
<g id="_x23_94331bff">
	<path fill="#94331B" d="M35.73,20.76c1.23-8.08,6.67-15.17,14.02-18.67c1.4,3.88,2.86,7.73,4.36,11.57
		c-2.19,1.95-4.56,4.05-5.39,6.98c-1.04,3.61-1.45,7.35-2.13,11.03C35.57,94.5,24.53,157.32,13.52,220.14
		c-1.48,6.57,3.43,13.39,10.06,14.23c36.69,6.72,73.41,13.29,110.09,20.02c4.83,1.02,9.89,2.03,14.76,0.65
		c1.43,3.82,2.86,7.64,4.3,11.45c-4.7,2-9.94,2.47-14.93,1.45c-36.56-6.66-73.12-13.28-109.68-19.92c-4.83-0.9-9.88-1.38-14.26-3.8
		c-7.52-3.87-12.55-11.88-13.17-20.26c-0.18-4.26,0.86-8.44,1.59-12.61C13.43,147.82,24.57,84.28,35.73,20.76z"/>
	<path fill="#94331B" d="M81,34.04c2.92-3.4,7.67-4.57,11.98-3.69c17.34,3.11,34.68,6.29,52.02,9.43c4.27,0.62,8.15,3.44,9.8,7.47
		c2.1,4.29-0.85,9.65,2.34,13.57c2.57,3.69,7.79,3.16,11.01,5.99c3.58,2.84,5.21,7.67,4.25,12.12
		c-7.72,44.03-15.42,88.07-23.19,132.09c-0.81,6.23-6.9,11.1-13.16,10.48l-0.63-0.57c-1.7-3.97-3.04-8.08-4.68-12.08
		c2.08-0.1,4.16-0.11,6.25-0.13c7.58-44.08,15.66-88.07,23.01-132.18c-5.51-1.62-10.81-4.7-13.79-9.77
		c-2.96-4.31-3.12-9.68-3.39-14.7c-17.45-3.24-34.94-6.25-52.37-9.59c-2.15,8.58-9.09,16-18.15,16.99
		c-1.47-4.01-2.93-8.03-4.65-11.95c3.02-0.44,6.48-0.78,8.45-3.45C78.38,41.06,78.18,36.74,81,34.04z"/>
	<path fill="#94331B" d="M67.62,120.64c3.51-9.19,10.98-16.61,19.95-20.51c1.85,3.8,3.44,7.71,4.79,11.72
		c-7.01,3.12-12.5,9.49-14,17.08c-3.07,11.55,4.41,24.35,15.6,28.11c5.13,1.9,10.8,1.51,15.9-0.26c1.59,3.84,3.09,7.72,4.4,11.68
		l0.17,0.48c-7.92,2.19-16.55,2.91-24.42,0.13c-12.7-4.24-22.61-15.92-24.49-29.21C64.76,133.41,65.16,126.7,67.62,120.64z"/>
</g>
<g id="_x23_d95819ff">
	<path fill="#D95819" d="M54.11,13.66c5.76-2.32,11.79-0.18,17.58,0.79c35.49,6.44,70.97,12.89,106.47,19.3
		c3.95,0.64,7.93,2.53,9.9,6.19c2.92,4.65,0.97,10.22,0.19,15.19c-11.16,63.29-22.24,126.6-33.34,189.91
		c-0.49,4.17-3.25,7.52-6.48,10c-4.87,1.38-9.93,0.37-14.76-0.65c-36.68-6.73-73.4-13.3-110.09-20.02
		c-6.63-0.84-11.54-7.66-10.06-14.23C24.53,157.32,35.57,94.5,46.59,31.67c0.68-3.68,1.09-7.42,2.13-11.03
		C49.55,17.71,51.92,15.61,54.11,13.66 M81,34.04c-2.82,2.7-2.62,7.02-4.9,10.03c-1.97,2.67-5.43,3.01-8.45,3.45l-0.41-0.99
		c-6.14,0.05-12.41,4.07-13.4,10.43c-7.84,44.22-15.55,88.46-23.31,132.7c-1.13,5.45,1.86,11.61,7.18,13.57
		c2.93,1.23,6.61,1.73,8.37,4.72c2.71,3.86,0.17,8.79,1.96,12.91c1.66,4.14,5.6,7.13,10,7.77c17.33,3.12,34.66,6.27,51.99,9.43
		c5.55,1.37,11.9-1.65,13.99-7.04c1.19-2.7,1.55-6.02,4.07-7.91c2-1.8,4.83-1.78,7.33-2.18l0.63,0.57
		c6.26,0.62,12.35-4.25,13.16-10.48c7.77-44.02,15.47-88.06,23.19-132.09c0.96-4.45-0.67-9.28-4.25-12.12
		c-3.22-2.83-8.44-2.3-11.01-5.99c-3.19-3.92-0.24-9.28-2.34-13.57c-1.65-4.03-5.53-6.85-9.8-7.47
		c-17.34-3.14-34.68-6.32-52.02-9.43C88.67,29.47,83.92,30.64,81,34.04z"/>
</g>
<g id="_x23_ff5f23ff">
	<path fill="#FF5F23" d="M72.3,59.47c9.06-0.99,16-8.41,18.15-16.99c17.43,3.34,34.92,6.35,52.37,9.59
		c0.27,5.02,0.43,10.39,3.39,14.7c2.98,5.07,8.28,8.15,13.79,9.77c-7.35,44.11-15.43,88.1-23.01,132.18
		c-2.09,0.02-4.17,0.03-6.25,0.13c-5.16,0.84-10.16,3.34-13.47,7.45c-2.31,2.74-3.46,6.2-4.62,9.53
		c-17.57-3.19-35.16-6.31-52.71-9.59c0.22-6.07-0.8-12.53-5.04-17.18c-2.89-3.67-7.25-5.62-11.54-7.14
		c1.01-6.86,2.43-13.65,3.04-20.56C52.91,134.1,59.44,96.84,66.01,59.6C68.11,59.58,70.21,59.57,72.3,59.47 M87.57,100.13
		c-8.97,3.9-16.44,11.32-19.95,20.51c-2.46,6.06-2.86,12.77-2.1,19.22c1.88,13.29,11.79,24.97,24.49,29.21
		c7.87,2.78,16.5,2.06,24.42-0.13l-0.17-0.48c4.74-1.43,8.89-4.34,12.49-7.67c10.76-10.24,14.07-27.24,8.24-40.85
		c-3.97-9.7-12.33-17.45-22.29-20.69C104.57,96.42,95.53,97,87.57,100.13z"/>
</g>
<g id="_x23_ff8425ff">
	<path fill="#FF8425" d="M92.36,111.85c5.91-2.15,12.8-2.48,18.58,0.26c10.37,4.45,16.59,16.83,13.57,27.76
		c-1.67,7.64-7.47,13.99-14.65,16.91c-5.1,1.77-10.77,2.16-15.9,0.26c-11.19-3.76-18.67-16.56-15.6-28.11
		C79.86,121.34,85.35,114.97,92.36,111.85z"/>
</g>
</svg>
