<?xml version="1.0" encoding="UTF-8" ?>
<!DOCTYPE svg PUBLIC "-//W3C//DTD SVG 1.1//EN" "http://www.w3.org/Graphics/SVG/1.1/DTD/svg11.dtd">
<svg width="436pt" height="462pt" viewBox="0 0 436 462" version="1.1" xmlns="http://www.w3.org/2000/svg">
<g id="#000000ff">
<path fill="#000000" opacity="1.00" d=" M 264.42 1.48 C 271.66 -0.40 278.65 3.27 285.66 4.52 C 288.97 5.38 293.87 5.87 294.39 10.09 C 294.77 19.06 294.47 28.06 294.54 37.05 C 294.84 40.19 292.37 43.46 289.07 43.33 C 281.90 42.53 275.19 38.85 267.88 39.24 C 259.48 40.26 251.57 44.08 243.07 44.37 C 234.41 43.19 226.06 40.35 217.53 38.51 C 217.66 28.34 217.46 18.16 217.59 7.98 C 217.26 4.91 219.85 2.18 222.82 1.87 C 229.97 2.69 236.71 5.89 243.93 6.19 C 250.93 5.53 257.56 2.91 264.42 1.48 Z" />
<path fill="#000000" opacity="1.00" d=" M 210.64 47.63 C 213.65 42.92 221.29 42.90 224.45 47.44 C 249.62 79.69 274.70 112.03 299.83 144.31 C 302.95 147.32 301.36 153.23 297.01 153.95 C 291.93 154.48 286.80 154.03 281.69 154.20 C 281.74 193.82 281.71 233.44 281.71 273.07 C 282.13 277.87 277.95 282.35 273.11 282.16 C 236.40 282.19 199.68 282.17 162.97 282.17 C 157.84 282.64 153.06 278.18 153.56 272.97 C 153.56 233.36 153.50 193.75 153.59 154.14 C 148.38 154.00 143.11 154.62 137.93 153.88 C 133.89 152.89 132.42 147.35 135.38 144.42 C 160.44 112.14 185.62 79.94 210.64 47.63 Z" />
<path fill="#000000" opacity="1.00" d=" M 0.00 189.70 C 1.00 178.20 18.53 175.73 24.10 184.95 C 27.39 190.28 24.41 196.92 26.60 202.52 C 29.03 206.23 34.23 204.84 37.98 205.23 C 42.03 204.79 47.68 206.46 50.36 202.49 C 52.21 197.51 50.31 191.98 51.85 186.93 C 55.35 176.82 72.53 176.77 76.20 186.76 C 77.67 191.60 76.26 196.79 77.44 201.69 C 78.02 203.62 79.93 204.86 81.89 204.95 C 86.93 205.36 92.03 205.34 97.07 204.98 C 99.10 204.93 101.17 203.81 101.83 201.80 C 103.44 196.14 100.74 189.53 104.39 184.41 C 108.03 178.97 115.80 178.43 121.46 180.54 C 125.88 182.44 128.44 187.26 128.19 191.98 C 128.23 211.64 128.13 231.30 128.22 250.96 C 128.11 255.82 128.93 261.47 125.39 265.40 C 123.00 268.48 118.96 269.10 115.35 269.65 C 115.54 275.74 115.07 281.85 115.59 287.93 C 116.16 292.34 120.70 295.12 124.94 294.71 C 183.94 294.69 242.94 294.71 301.95 294.70 C 305.59 294.67 309.25 294.92 312.89 294.54 C 316.56 294.15 319.68 290.81 319.78 287.11 C 320.07 281.29 319.70 275.45 319.91 269.63 C 316.70 269.07 313.11 268.73 310.70 266.29 C 308.13 263.99 307.08 260.48 307.17 257.11 C 307.16 235.38 307.19 213.64 307.16 191.90 C 307.06 188.51 308.04 184.95 310.65 182.64 C 314.40 179.01 320.17 178.92 324.95 180.07 C 330.07 181.48 333.36 186.74 332.86 191.96 C 333.33 196.02 331.54 201.68 335.60 204.34 C 339.87 205.75 344.51 205.05 348.94 205.20 C 352.00 205.03 356.39 205.46 357.74 201.94 C 359.45 196.24 356.71 189.59 360.34 184.40 C 363.84 179.12 371.16 178.60 376.74 180.24 C 381.96 182.03 384.68 187.77 384.18 193.05 C 384.46 196.90 382.84 202.57 387.31 204.56 C 391.78 205.65 396.46 205.10 401.02 205.19 C 403.90 205.15 407.74 205.10 408.97 201.89 C 410.04 197.83 409.15 193.56 409.62 189.42 C 410.04 184.59 414.15 180.39 418.93 179.71 C 423.45 179.06 428.72 179.39 432.03 182.93 C 434.80 185.49 435.42 189.41 435.36 193.01 C 435.32 213.68 435.29 234.35 435.37 255.02 C 435.43 258.68 435.20 262.76 432.47 265.53 C 430.08 268.55 426.10 269.13 422.53 269.67 C 422.58 321.79 422.53 373.91 422.56 426.03 C 422.58 431.65 422.93 437.48 420.81 442.83 C 416.86 453.78 405.67 461.58 394.00 461.35 C 278.99 461.34 163.97 461.34 48.96 461.35 C 43.07 461.32 36.95 461.80 31.35 459.60 C 23.29 456.69 16.75 449.92 14.15 441.75 C 12.34 436.35 12.78 430.58 12.74 424.98 C 12.81 373.20 12.69 321.41 12.80 269.63 C 9.82 269.13 6.56 268.87 4.17 266.82 C 1.81 265.04 0.66 262.20 0.00 259.41 L 0.00 189.70 M 60.25 295.54 C 54.94 297.12 51.22 302.49 51.40 308.00 C 51.40 314.70 51.30 321.41 51.47 328.11 C 51.40 331.01 54.05 333.51 56.93 333.38 C 61.94 333.48 66.97 333.59 71.97 333.31 C 74.61 333.13 76.75 330.72 76.68 328.09 C 76.78 321.04 76.81 313.98 76.70 306.93 C 76.62 298.95 67.77 292.83 60.25 295.54 M 367.36 295.54 C 363.44 296.77 360.22 300.04 359.10 304.01 C 358.30 306.93 358.55 309.99 358.53 312.99 C 358.65 318.00 358.38 323.02 358.61 328.04 C 358.53 330.86 361.09 333.43 363.92 333.36 C 368.96 333.51 374.01 333.58 379.05 333.32 C 381.69 333.15 383.95 330.78 383.81 328.10 C 383.96 321.07 383.83 314.03 383.83 307.00 C 383.88 298.98 374.86 292.81 367.36 295.54 M 213.25 315.38 C 195.13 317.29 179.92 333.76 179.61 352.01 C 179.53 377.70 179.60 403.39 179.58 429.08 C 179.07 432.70 182.37 435.94 185.96 435.51 C 207.32 435.50 228.68 435.53 250.04 435.49 C 253.55 435.77 256.39 432.54 255.94 429.09 C 256.13 406.41 255.95 383.72 256.03 361.03 C 256.01 356.63 256.06 352.21 255.53 347.83 C 253.89 335.87 246.10 325.01 235.40 319.48 C 228.67 315.82 220.82 314.55 213.25 315.38 M 59.31 385.45 C 56.47 386.63 54.11 388.89 52.70 391.60 C 51.01 394.80 51.43 398.52 51.38 402.00 C 51.52 407.31 51.21 412.62 51.46 417.93 C 51.47 420.72 54.12 423.00 56.86 422.92 C 61.93 423.20 67.04 423.30 72.10 422.82 C 74.94 422.62 76.95 419.74 76.72 417.01 C 76.78 410.01 76.81 403.00 76.66 396.00 C 76.27 387.88 66.72 382.03 59.31 385.45 M 366.34 385.51 C 361.83 387.43 358.56 392.07 358.59 397.02 C 358.51 403.67 358.49 410.33 358.58 416.98 C 358.42 419.63 360.17 422.58 363.01 422.83 C 368.34 423.30 373.74 423.25 379.08 422.86 C 381.56 422.79 383.75 420.53 383.77 418.06 C 383.99 412.69 383.78 407.32 383.89 401.96 C 383.83 398.40 384.25 394.60 382.48 391.36 C 379.70 385.60 372.17 382.86 366.34 385.51 Z" />
</g>
</svg>
