<?xml version="1.0" encoding="UTF-8" ?>
<!DOCTYPE svg PUBLIC "-//W3C//DTD SVG 1.1//EN" "http://www.w3.org/Graphics/SVG/1.1/DTD/svg11.dtd">
<svg width="170pt" height="170pt" viewBox="0 0 170 170" version="1.1" xmlns="http://www.w3.org/2000/svg">
<g id="#fdc842ff">
<path fill="#fdc842" opacity="1.00" d=" M 79.59 0.00 L 90.40 0.00 C 98.93 0.88 107.43 2.50 115.46 5.58 C 115.62 8.78 116.60 12.54 114.16 15.16 C 110.72 19.38 106.47 22.86 102.83 26.90 C 88.28 22.51 72.10 23.73 58.44 30.42 C 42.06 38.30 29.53 53.93 25.78 71.76 C 23.43 82.02 23.96 92.84 26.91 102.92 C 22.69 106.70 19.09 111.16 14.56 114.57 C 11.93 116.64 8.45 115.39 5.45 115.12 C 2.36 106.89 0.70 98.18 0.00 89.43 L 0.00 80.56 C 1.36 56.22 13.47 32.69 32.87 17.86 C 46.20 7.35 62.74 1.39 79.59 0.00 Z" />
<path fill="#fdc842" opacity="1.00" d=" M 40.23 148.29 C 43.62 143.81 48.09 140.31 51.84 136.16 C 56.75 139.16 62.18 141.11 67.78 142.36 C 69.00 143.09 70.17 143.88 71.35 144.68 C 67.92 149.10 63.40 152.54 60.00 156.97 C 57.77 159.82 59.75 163.41 60.46 166.46 C 53.17 164.19 46.18 160.98 39.67 156.99 C 39.43 154.12 38.23 150.79 40.23 148.29 Z" />
</g>
<g id="#fee783ff">
<path fill="#fee783" opacity="1.00" d=" M 115.46 5.58 C 125.07 9.35 134.03 14.79 141.71 21.70 C 141.15 24.83 140.93 28.27 138.85 30.84 C 135.66 34.80 131.68 38.01 128.05 41.53 C 126.36 40.35 124.68 39.16 123.02 37.94 C 117.04 33.02 110.24 29.17 102.83 26.90 C 106.47 22.86 110.72 19.38 114.16 15.16 C 116.60 12.54 115.62 8.78 115.46 5.58 Z" />
<path fill="#fee783" opacity="1.00" d=" M 80.11 59.89 C 81.37 60.00 82.64 60.09 83.91 60.16 C 84.39 68.76 84.05 77.38 84.24 85.99 C 84.15 89.65 84.58 93.56 82.96 96.95 C 81.47 99.83 77.88 99.91 75.06 100.08 C 68.60 100.23 61.67 100.93 55.86 97.49 C 54.05 89.43 51.31 81.61 49.60 73.53 C 49.45 72.23 49.06 69.95 51.12 70.39 C 57.80 71.91 61.29 80.15 68.63 80.19 C 71.93 73.13 76.62 66.85 80.11 59.89 Z" />
<path fill="#fee783" opacity="1.00" d=" M 14.56 114.57 C 19.09 111.16 22.69 106.70 26.91 102.92 C 29.13 110.28 33.05 116.97 37.85 122.94 C 39.10 124.63 40.32 126.34 41.55 128.05 C 38.01 131.67 34.80 135.63 30.89 138.86 C 28.32 141.00 24.83 141.16 21.68 141.71 C 14.70 133.93 9.21 124.86 5.45 115.12 C 8.45 115.39 11.93 116.64 14.56 114.57 Z" />
</g>
<g id="#f4842fff">
<path fill="#f4842f" opacity="1.00" d=" M 141.71 21.70 C 147.59 26.96 152.73 33.03 156.98 39.67 C 154.10 39.48 150.71 38.14 148.22 40.21 C 143.85 43.66 140.26 47.98 136.08 51.66 C 139.06 56.63 141.05 62.10 142.44 67.71 C 141.60 73.48 138.47 78.49 134.32 82.46 C 132.92 79.41 131.57 76.31 130.81 73.03 C 128.93 64.93 124.48 57.68 119.31 51.28 C 121.86 47.29 122.84 42.62 123.02 37.94 C 124.68 39.16 126.36 40.35 128.05 41.53 C 131.68 38.01 135.66 34.80 138.85 30.84 C 140.93 28.27 141.15 24.83 141.71 21.70 Z" />
<path fill="#f4842f" opacity="1.00" d=" M 51.29 119.33 C 60.31 126.91 71.44 131.69 83.04 133.54 C 79.25 138.32 73.78 141.39 67.78 142.36 C 62.18 141.11 56.75 139.16 51.84 136.16 C 48.09 140.31 43.62 143.81 40.23 148.29 C 38.23 150.79 39.43 154.12 39.67 156.99 C 33.04 152.71 26.94 147.60 21.68 141.71 C 24.83 141.16 28.32 141.00 30.89 138.86 C 34.80 135.63 38.01 131.67 41.55 128.05 C 40.32 126.34 39.10 124.63 37.85 122.94 C 42.51 122.62 47.23 121.79 51.29 119.33 Z" />
</g>
<g id="#d56131ff">
<path fill="#d56131" opacity="1.00" d=" M 58.44 30.42 C 72.10 23.73 88.28 22.51 102.83 26.90 C 110.24 29.17 117.04 33.02 123.02 37.94 C 122.84 42.62 121.86 47.29 119.31 51.28 C 109.21 40.37 93.71 35.58 79.12 37.18 C 59.78 39.35 42.92 54.43 38.18 73.24 C 34.37 89.46 38.81 107.90 51.29 119.33 C 47.23 121.79 42.51 122.62 37.85 122.94 C 33.05 116.97 29.13 110.28 26.91 102.92 C 23.96 92.84 23.43 82.02 25.78 71.76 C 29.53 53.93 42.06 38.30 58.44 30.42 Z" />
</g>
<g id="#fd9a2cff">
<path fill="#fd9a2c" opacity="1.00" d=" M 38.18 73.24 C 42.92 54.43 59.78 39.35 79.12 37.18 C 93.71 35.58 109.21 40.37 119.31 51.28 C 124.48 57.68 128.93 64.93 130.81 73.03 C 131.57 76.31 132.92 79.41 134.32 82.46 C 132.26 89.14 132.60 96.38 129.89 102.89 C 125.68 113.38 117.52 122.18 107.67 127.66 C 100.17 131.82 91.47 132.97 83.04 133.54 C 71.44 131.69 60.31 126.91 51.29 119.33 C 38.81 107.90 34.37 89.46 38.18 73.24 M 80.11 59.89 C 76.62 66.85 71.93 73.13 68.63 80.19 C 61.29 80.15 57.80 71.91 51.12 70.39 C 49.06 69.95 49.45 72.23 49.60 73.53 C 51.31 81.61 54.05 89.43 55.86 97.49 C 56.61 101.92 58.09 108.08 63.74 108.01 C 64.27 110.29 64.21 113.16 66.34 114.66 C 68.55 116.20 71.42 115.92 73.98 116.06 C 84.65 115.95 95.33 115.90 106.00 116.07 C 109.20 115.90 112.86 116.57 115.68 114.68 C 118.87 111.44 119.23 106.59 120.46 102.42 C 121.94 95.46 124.68 88.82 125.94 81.82 C 126.92 77.52 122.12 75.59 119.18 73.76 C 119.38 72.34 118.83 70.14 117.07 70.22 C 113.41 71.82 110.61 74.77 107.47 77.15 C 104.90 71.13 101.57 65.46 98.05 59.96 C 95.78 55.85 90.41 56.89 86.50 56.34 L 86.92 57.01 C 84.50 53.20 81.38 57.46 80.11 59.89 Z" />
</g>
<g id="#fdc843ff">
<path fill="#fdc843" opacity="1.00" d=" M 148.22 40.21 C 150.71 38.14 154.10 39.48 156.98 39.67 C 160.85 45.96 163.98 52.70 166.22 59.74 C 162.99 59.48 159.16 58.05 156.39 60.42 C 152.25 63.81 148.86 68.02 144.74 71.44 C 143.95 70.21 143.16 68.98 142.44 67.71 C 141.05 62.10 139.06 56.63 136.08 51.66 C 140.26 47.98 143.85 43.66 148.22 40.21 Z" />
<path fill="#fdc843" opacity="1.00" d=" M 80.11 59.89 C 81.38 57.46 84.50 53.20 86.92 57.01 C 91.84 64.72 95.31 73.40 101.19 80.44 C 103.54 79.93 105.58 78.59 107.47 77.15 C 110.61 74.77 113.41 71.82 117.07 70.22 C 118.83 70.14 119.38 72.34 119.18 73.76 C 117.79 80.26 115.50 86.54 114.00 93.02 C 112.89 97.12 112.30 101.45 110.21 105.21 C 108.35 108.32 104.16 107.82 101.06 108.05 C 88.62 107.86 76.18 108.03 63.74 108.01 C 58.09 108.08 56.61 101.92 55.86 97.49 C 61.67 100.93 68.60 100.23 75.06 100.08 C 77.88 99.91 81.47 99.83 82.96 96.95 C 84.58 93.56 84.15 89.65 84.24 85.99 C 84.05 77.38 84.39 68.76 83.91 60.16 C 82.64 60.09 81.37 60.00 80.11 59.89 Z" />
</g>
<g id="#df6a29ff">
<path fill="#df6a29" opacity="1.00" d=" M 86.50 56.34 C 90.41 56.89 95.78 55.85 98.05 59.96 C 101.57 65.46 104.90 71.13 107.47 77.15 C 105.58 78.59 103.54 79.93 101.19 80.44 C 95.31 73.40 91.84 64.72 86.92 57.01 L 86.50 56.34 Z" />
</g>
<g id="#f89027ff">
<path fill="#f89027" opacity="1.00" d=" M 156.39 60.42 C 159.16 58.05 162.99 59.48 166.22 59.74 C 168.22 66.52 169.42 73.52 170.00 80.56 L 170.00 89.44 C 168.82 108.79 161.13 127.69 148.04 142.04 C 133.40 158.40 112.25 168.37 90.41 170.00 L 76.65 170.00 C 71.23 168.92 65.79 167.90 60.46 166.46 C 59.75 163.41 57.77 159.82 60.00 156.97 C 63.40 152.54 67.92 149.10 71.35 144.68 C 75.90 145.10 80.46 145.58 85.03 145.74 C 100.93 145.70 116.71 139.25 127.84 127.84 C 138.93 117.18 145.05 102.00 145.68 86.74 C 145.77 81.62 145.22 76.52 144.74 71.44 C 148.86 68.02 152.25 63.81 156.39 60.42 Z" />
</g>
<g id="#fdd35dff">
<path fill="#fdd35d" opacity="1.00" d=" M 142.44 67.71 C 143.16 68.98 143.95 70.21 144.74 71.44 C 145.22 76.52 145.77 81.62 145.68 86.74 C 145.05 102.00 138.93 117.18 127.84 127.84 C 116.71 139.25 100.93 145.70 85.03 145.74 C 80.46 145.58 75.90 145.10 71.35 144.68 C 70.17 143.88 69.00 143.09 67.78 142.36 C 73.78 141.39 79.25 138.32 83.04 133.54 C 91.47 132.97 100.17 131.82 107.67 127.66 C 117.52 122.18 125.68 113.38 129.89 102.89 C 132.60 96.38 132.26 89.14 134.32 82.46 C 138.47 78.49 141.60 73.48 142.44 67.71 Z" />
</g>
<g id="#e0692bff">
<path fill="#e0692b" opacity="1.00" d=" M 119.18 73.76 C 122.12 75.59 126.92 77.52 125.94 81.82 C 124.68 88.82 121.94 95.46 120.46 102.42 C 119.23 106.59 118.87 111.44 115.68 114.68 C 112.86 116.57 109.20 115.90 106.00 116.07 C 95.33 115.90 84.65 115.95 73.98 116.06 C 71.42 115.92 68.55 116.20 66.34 114.66 C 64.21 113.16 64.27 110.29 63.74 108.01 C 76.18 108.03 88.62 107.86 101.06 108.05 C 104.16 107.82 108.35 108.32 110.21 105.21 C 112.30 101.45 112.89 97.12 114.00 93.02 C 115.50 86.54 117.79 80.26 119.18 73.76 Z" />
</g>
</svg>
