<?xml version="1.0" encoding="UTF-8" ?>
<!DOCTYPE svg PUBLIC "-//W3C//DTD SVG 1.1//EN" "http://www.w3.org/Graphics/SVG/1.1/DTD/svg11.dtd">
<svg width="514pt" height="389pt" viewBox="0 0 514 389" version="1.1" xmlns="http://www.w3.org/2000/svg">
<g id="#fec83bff">
<path fill="#fec83b" opacity="1.00" d=" M 249.67 0.00 L 263.26 0.00 C 270.96 2.18 278.12 7.42 281.13 15.01 C 277.22 12.93 273.85 9.11 269.10 9.20 C 264.81 9.16 259.99 8.58 256.27 11.20 C 252.60 13.71 249.14 17.34 248.76 22.00 C 248.14 27.84 248.48 34.66 253.10 38.90 C 257.45 43.37 264.14 43.88 270.01 43.29 C 274.57 42.97 277.37 38.77 281.29 36.90 C 279.60 43.34 274.26 47.68 268.71 50.81 C 293.42 86.32 317.64 122.16 342.28 157.71 C 346.49 163.27 349.89 169.41 354.34 174.79 C 355.74 175.36 357.03 173.77 358.32 173.33 C 364.06 169.48 370.62 167.15 376.43 163.43 C 380.89 160.78 385.77 158.92 390.19 156.19 C 395.83 152.63 402.17 150.36 407.81 146.81 C 411.37 144.58 415.31 143.03 418.95 140.93 C 425.59 136.68 433.07 133.99 439.69 129.71 C 447.30 126.03 454.47 121.55 462.09 117.88 C 460.01 112.22 459.48 106.16 460.16 100.19 C 462.17 91.57 468.34 83.85 476.69 80.69 C 486.26 76.99 498.24 79.01 505.30 86.70 C 507.91 89.30 510.61 92.23 511.20 96.02 C 507.74 93.02 504.42 89.23 499.66 88.47 C 495.39 87.74 490.62 87.47 486.79 89.83 C 482.44 92.45 478.48 96.66 478.11 101.96 C 477.85 105.73 477.61 109.69 478.87 113.31 C 482.23 119.03 488.09 123.91 495.07 123.73 C 500.35 124.34 504.79 121.02 509.45 119.17 C 506.70 126.01 499.62 130.01 492.81 131.84 C 487.66 132.27 482.48 131.93 477.32 131.86 C 473.43 131.93 470.14 134.26 466.72 135.82 C 456.86 140.35 447.99 146.74 438.02 151.06 C 424.79 156.54 413.21 165.16 400.33 171.36 C 385.19 179.60 369.71 187.21 354.73 195.76 C 352.55 196.87 349.63 198.75 347.42 196.62 C 342.93 192.28 340.34 186.40 336.48 181.54 C 329.78 170.99 322.17 161.08 315.44 150.56 C 308.01 139.11 299.60 128.33 292.01 116.98 C 281.00 100.00 268.94 83.70 258.07 66.63 C 257.69 61.96 257.33 57.30 256.53 52.68 C 253.00 52.02 249.47 51.38 245.99 50.47 C 233.94 46.54 227.67 31.86 231.02 20.04 C 232.58 10.40 240.88 3.23 249.67 0.00 Z" />
<path fill="#fec83b" opacity="1.00" d=" M 207.87 299.97 C 222.16 300.00 236.44 300.06 250.73 299.94 C 280.81 299.85 310.90 299.66 340.98 300.01 C 338.51 302.76 336.02 306.04 336.62 309.99 C 336.53 313.34 339.52 315.40 342.09 316.91 C 341.42 316.97 340.09 317.10 339.42 317.16 C 305.62 316.63 271.81 317.07 238.00 316.93 C 228.33 316.65 218.62 317.52 208.99 316.45 C 210.95 313.79 213.39 310.80 212.71 307.25 C 211.91 304.38 209.65 302.25 207.87 299.97 Z" />
<path fill="#fec83b" opacity="1.00" d=" M 211.05 371.49 C 222.67 370.63 234.35 371.37 246.00 371.12 C 277.72 371.31 309.47 370.72 341.18 371.46 C 339.16 373.93 336.16 376.40 336.85 379.99 C 336.76 383.53 339.58 385.92 342.00 388.05 C 341.30 388.29 339.91 388.76 339.22 389.00 L 208.85 389.00 C 208.63 388.62 208.20 387.86 207.98 387.49 C 209.65 386.43 211.65 385.38 212.36 383.42 C 213.53 379.43 212.66 375.21 211.05 371.49 Z" />
</g>
<g id="#fcfb3eff">
<path fill="#fcfb3e" opacity="1.00" d=" M 256.27 11.20 C 259.99 8.58 264.81 9.16 269.10 9.20 C 273.85 9.11 277.22 12.93 281.13 15.01 C 284.18 21.91 284.42 29.99 281.29 36.90 C 277.37 38.77 274.57 42.97 270.01 43.29 C 264.14 43.88 257.45 43.37 253.10 38.90 C 248.48 34.66 248.14 27.84 248.76 22.00 C 249.14 17.34 252.60 13.71 256.27 11.20 Z" />
<path fill="#fcfb3e" opacity="1.00" d=" M 341.18 371.46 C 353.77 370.27 366.43 371.15 379.06 370.86 C 383.99 370.21 388.38 374.36 389.04 379.06 C 389.36 382.86 386.02 385.44 383.85 388.09 C 369.92 388.72 355.93 388.76 342.00 388.05 C 339.58 385.92 336.76 383.53 336.85 379.99 C 336.16 376.40 339.16 373.93 341.18 371.46 Z" />
</g>
<g id="#fca700ff">
<path fill="#fca700" opacity="1.00" d=" M 245.99 50.47 C 249.47 51.38 253.00 52.02 256.53 52.68 C 257.33 57.30 257.69 61.96 258.07 66.63 C 257.74 66.89 257.08 67.41 256.75 67.67 C 253.70 69.71 251.85 72.92 249.97 75.97 C 237.59 94.24 224.81 112.25 212.66 130.67 C 208.54 137.17 203.11 142.74 199.42 149.51 C 197.24 153.22 194.30 156.40 192.04 160.06 C 183.57 173.12 174.69 185.91 165.82 198.71 C 152.18 192.93 139.99 184.32 126.38 178.47 C 115.20 172.85 104.83 165.70 93.36 160.61 C 84.78 155.81 76.21 150.95 67.33 146.68 C 61.02 143.72 55.19 139.85 48.76 137.15 C 44.83 135.57 41.52 131.83 36.95 132.47 C 36.68 132.15 36.14 131.50 35.87 131.18 C 30.58 131.86 25.09 132.62 19.88 131.04 C 8.57 127.95 0.66 116.54 0.78 104.98 C 1.48 95.11 7.45 85.47 16.74 81.59 C 28.70 76.20 44.39 80.90 50.46 92.78 C 46.09 90.92 41.96 87.82 36.99 87.96 C 29.86 87.76 22.41 91.96 19.88 98.82 C 18.47 102.90 18.49 107.43 19.49 111.61 C 21.70 118.86 29.17 123.92 36.72 123.46 C 42.12 123.51 46.53 120.11 51.15 117.83 C 87.21 137.43 123.48 156.65 159.78 175.80 C 188.70 134.15 217.35 92.31 245.99 50.47 Z" />
<path fill="#fca700" opacity="1.00" d=" M 218.19 217.21 C 225.31 202.90 241.04 193.72 256.93 193.85 L 257.81 193.83 C 256.42 199.51 256.90 205.37 256.92 211.14 C 250.74 211.68 244.48 213.59 239.70 217.68 C 231.04 225.05 227.72 238.14 232.33 248.62 C 236.52 258.28 246.47 264.76 256.95 265.14 C 256.81 270.73 256.81 276.33 257.01 281.92 C 258.43 282.10 259.85 282.28 261.28 282.47 C 259.89 282.66 258.50 282.83 257.11 282.91 C 251.10 281.95 244.86 281.43 239.37 278.59 C 227.22 273.01 216.88 262.31 214.00 248.99 C 211.86 238.36 212.38 226.66 218.19 217.21 Z" />
<path fill="#fca700" opacity="1.00" d=" M 164.35 221.45 C 172.40 220.51 181.45 219.77 188.62 224.36 C 193.25 227.26 197.35 231.13 200.20 235.82 C 203.14 240.65 203.47 246.46 203.99 251.95 C 204.51 256.78 201.92 261.13 200.56 265.61 C 197.76 271.40 192.75 275.91 187.34 279.26 C 180.84 283.26 172.84 282.28 165.63 281.43 C 159.25 280.99 154.12 276.57 150.12 271.95 C 146.79 268.24 144.92 263.56 142.95 259.05 C 141.06 254.88 142.27 250.22 142.88 245.91 C 143.74 241.86 144.06 237.25 147.24 234.23 C 149.70 231.69 151.27 228.19 154.58 226.56 C 157.77 224.75 160.79 222.49 164.35 221.45 M 168.31 238.27 C 161.63 240.39 157.23 248.03 159.17 254.86 C 160.74 261.31 167.38 266.08 174.02 265.25 C 181.08 264.77 187.07 258.11 186.46 250.99 C 186.70 241.99 176.68 235.15 168.31 238.27 Z" />
<path fill="#fca700" opacity="1.00" d=" M 113.43 335.50 C 119.22 334.24 126.82 340.06 124.28 346.29 C 123.23 350.15 119.26 352.75 115.36 352.46 C 112.42 351.60 108.78 350.48 107.80 347.19 C 105.75 342.67 108.86 336.94 113.43 335.50 Z" />
<path fill="#fca700" opacity="1.00" d=" M 146.39 336.42 C 150.10 335.51 154.64 335.57 157.44 338.56 C 163.64 343.51 156.68 355.11 149.39 352.54 C 146.49 351.40 143.98 349.17 142.54 346.41 C 140.95 342.69 143.44 338.63 146.39 336.42 Z" />
</g>
<g id="#fe992bff">
<path fill="#fe992b" opacity="1.00" d=" M 256.75 67.67 C 257.08 67.41 257.74 66.89 258.07 66.63 C 268.94 83.70 281.00 100.00 292.01 116.98 C 299.60 128.33 308.01 139.11 315.44 150.56 C 322.17 161.08 329.78 170.99 336.48 181.54 C 340.34 186.40 342.93 192.28 347.42 196.62 C 349.63 198.75 352.55 196.87 354.73 195.76 C 369.71 187.21 385.19 179.60 400.33 171.36 C 413.21 165.16 424.79 156.54 438.02 151.06 C 447.99 146.74 456.86 140.35 466.72 135.82 C 470.14 134.26 473.43 131.93 477.32 131.86 C 469.04 156.15 459.90 180.13 451.28 204.30 C 441.91 229.95 432.58 255.61 423.28 281.29 C 420.81 287.39 419.22 293.86 416.04 299.66 C 405.24 299.05 394.38 299.18 383.57 299.66 C 369.37 299.79 355.17 299.35 340.98 300.01 C 310.90 299.66 280.81 299.85 250.73 299.94 C 252.79 299.61 254.83 299.16 256.88 298.77 C 256.93 293.48 256.90 288.19 257.11 282.91 C 258.50 282.83 259.89 282.66 261.28 282.47 C 273.48 280.86 285.52 275.02 292.89 264.93 C 299.12 255.59 302.95 244.15 301.18 232.86 C 298.99 211.69 279.44 193.07 257.81 193.83 L 256.93 193.85 C 257.00 154.90 256.79 115.96 256.97 77.01 C 256.94 73.90 256.78 70.78 256.75 67.67 M 336.45 220.54 C 325.57 222.25 314.83 229.67 311.72 240.64 C 308.41 250.04 309.94 260.60 314.93 269.09 C 319.56 274.91 325.55 280.33 333.02 281.94 C 343.01 284.18 354.15 281.91 361.66 274.71 C 367.98 269.71 370.60 261.70 371.82 254.03 C 372.12 248.29 370.73 242.54 368.72 237.20 C 362.87 225.60 349.30 218.60 336.45 220.54 Z" />
<path fill="#fe992b" opacity="1.00" d=" M 91.00 315.05 C 86.23 309.98 89.43 299.47 97.13 299.84 C 134.04 300.23 170.96 299.64 207.87 299.97 C 209.65 302.25 211.91 304.38 212.71 307.25 C 213.39 310.80 210.95 313.79 208.99 316.45 C 208.72 316.80 208.18 317.50 207.90 317.85 C 249.60 318.40 291.32 317.82 333.03 318.15 C 335.19 318.14 337.30 317.57 339.42 317.16 C 340.09 317.10 341.42 316.97 342.09 316.91 L 342.98 316.97 C 345.32 318.53 345.01 321.51 345.07 323.97 C 344.86 339.26 345.16 354.55 344.92 369.85 C 339.95 370.07 334.98 370.31 330.00 370.24 C 310.67 369.85 291.33 370.13 272.00 370.04 C 250.66 370.18 229.30 369.75 207.97 370.27 C 209.00 370.66 210.02 371.07 211.05 371.49 C 212.66 375.21 213.53 379.43 212.36 383.42 C 211.65 385.38 209.65 386.43 207.98 387.49 C 207.49 387.86 206.50 388.62 206.01 389.00 L 97.67 389.00 C 94.67 387.73 90.85 386.79 89.60 383.37 C 86.84 377.46 91.49 370.00 98.00 369.82 C 121.64 370.12 145.30 370.02 168.94 369.94 C 169.02 352.61 169.10 335.27 168.89 317.93 C 149.94 317.48 130.96 317.83 112.00 317.77 C 106.91 318.06 101.75 316.83 96.73 318.06 C 94.75 317.26 92.45 316.71 91.00 315.05 M 183.37 335.44 C 176.88 336.63 175.67 345.10 179.29 349.71 C 182.72 354.92 191.65 353.83 194.54 348.58 C 195.19 344.86 195.99 340.00 192.80 337.20 C 190.51 334.49 186.50 334.60 183.37 335.44 M 218.38 335.51 C 210.69 337.82 211.19 351.22 219.18 352.70 C 222.80 353.07 228.40 352.93 229.50 348.59 C 230.83 345.28 230.87 341.24 228.71 338.27 C 226.31 335.20 221.96 334.53 218.38 335.51 M 254.43 335.50 C 248.24 336.43 246.89 344.11 249.06 348.99 C 251.39 353.47 257.31 353.43 261.59 352.46 C 265.09 350.39 266.19 345.87 265.85 342.06 C 265.57 336.76 258.95 334.17 254.43 335.50 M 289.38 335.49 C 285.93 336.70 282.85 340.04 283.29 343.91 C 283.55 346.19 284.04 348.64 285.57 350.44 C 288.57 352.97 292.88 353.66 296.60 352.54 C 299.47 350.61 301.06 347.19 301.61 343.86 C 301.83 337.77 294.95 333.35 289.38 335.49 M 324.38 335.51 C 317.46 337.68 317.28 348.32 322.78 352.19 C 328.08 354.88 335.61 351.77 336.54 345.60 C 338.50 338.87 330.52 333.08 324.38 335.51 Z" />
</g>
<g id="#d46132ff">
<path fill="#d46132" opacity="1.00" d=" M 249.97 75.97 C 251.85 72.92 253.70 69.71 256.75 67.67 C 256.78 70.78 256.94 73.90 256.97 77.01 C 256.79 115.96 257.00 154.90 256.93 193.85 C 241.04 193.72 225.31 202.90 218.19 217.21 C 212.38 226.66 211.86 238.36 214.00 248.99 C 216.88 262.31 227.22 273.01 239.37 278.59 C 244.86 281.43 251.10 281.95 257.11 282.91 C 256.90 288.19 256.93 293.48 256.88 298.77 C 254.83 299.16 252.79 299.61 250.73 299.94 C 236.44 300.06 222.16 300.00 207.87 299.97 C 170.96 299.64 134.04 300.23 97.13 299.84 C 78.62 247.31 58.96 195.18 40.27 142.71 C 38.90 139.39 37.74 135.98 36.95 132.47 C 41.52 131.83 44.83 135.57 48.76 137.15 C 55.19 139.85 61.02 143.72 67.33 146.68 C 76.21 150.95 84.78 155.81 93.36 160.61 C 104.83 165.70 115.20 172.85 126.38 178.47 C 139.99 184.32 152.18 192.93 165.82 198.71 C 174.69 185.91 183.57 173.12 192.04 160.06 C 194.30 156.40 197.24 153.22 199.42 149.51 C 203.11 142.74 208.54 137.17 212.66 130.67 C 224.81 112.25 237.59 94.24 249.97 75.97 M 164.35 221.45 C 160.79 222.49 157.77 224.75 154.58 226.56 C 151.27 228.19 149.70 231.69 147.24 234.23 C 144.06 237.25 143.74 241.86 142.88 245.91 C 142.27 250.22 141.06 254.88 142.95 259.05 C 144.92 263.56 146.79 268.24 150.12 271.95 C 154.12 276.57 159.25 280.99 165.63 281.43 C 172.84 282.28 180.84 283.26 187.34 279.26 C 192.75 275.91 197.76 271.40 200.56 265.61 C 201.92 261.13 204.51 256.78 203.99 251.95 C 203.47 246.46 203.14 240.65 200.20 235.82 C 197.35 231.13 193.25 227.26 188.62 224.36 C 181.45 219.77 172.40 220.51 164.35 221.45 Z" />
<path fill="#d46132" opacity="1.00" d=" M 96.73 318.06 C 101.75 316.83 106.91 318.06 112.00 317.77 C 130.96 317.83 149.94 317.48 168.89 317.93 C 169.10 335.27 169.02 352.61 168.94 369.94 C 145.30 370.02 121.64 370.12 98.00 369.82 C 98.02 355.20 97.98 340.58 98.03 325.96 C 98.13 323.26 97.47 320.63 96.73 318.06 M 113.43 335.50 C 108.86 336.94 105.75 342.67 107.80 347.19 C 108.78 350.48 112.42 351.60 115.36 352.46 C 119.26 352.75 123.23 350.15 124.28 346.29 C 126.82 340.06 119.22 334.24 113.43 335.50 M 146.39 336.42 C 143.44 338.63 140.95 342.69 142.54 346.41 C 143.98 349.17 146.49 351.40 149.39 352.54 C 156.68 355.11 163.64 343.51 157.44 338.56 C 154.64 335.57 150.10 335.51 146.39 336.42 Z" />
</g>
<g id="#fcd100ff">
<path fill="#fcd100" opacity="1.00" d=" M 19.88 98.82 C 22.41 91.96 29.86 87.76 36.99 87.96 C 41.96 87.82 46.09 90.92 50.46 92.78 C 54.97 100.31 54.72 109.99 51.15 117.83 C 46.53 120.11 42.12 123.51 36.72 123.46 C 29.17 123.92 21.70 118.86 19.49 111.61 C 18.49 107.43 18.47 102.90 19.88 98.82 Z" />
<path fill="#fcd100" opacity="1.00" d=" M 336.45 220.54 C 349.30 218.60 362.87 225.60 368.72 237.20 C 370.73 242.54 372.12 248.29 371.82 254.03 C 370.60 261.70 367.98 269.71 361.66 274.71 C 354.15 281.91 343.01 284.18 333.02 281.94 C 325.55 280.33 319.56 274.91 314.93 269.09 C 309.94 260.60 308.41 250.04 311.72 240.64 C 314.83 229.67 325.57 222.25 336.45 220.54 M 335.38 238.34 C 329.91 240.41 326.31 246.21 326.71 252.02 C 326.95 259.67 334.42 266.08 342.03 265.14 C 349.76 264.57 355.67 256.54 354.26 248.98 C 353.22 240.42 343.22 235.00 335.38 238.34 Z" />
<path fill="#fcd100" opacity="1.00" d=" M 254.43 335.50 C 258.95 334.17 265.57 336.76 265.85 342.06 C 266.19 345.87 265.09 350.39 261.59 352.46 C 257.31 353.43 251.39 353.47 249.06 348.99 C 246.89 344.11 248.24 336.43 254.43 335.50 Z" />
</g>
<g id="#fcfc37ff">
<path fill="#fcfc37" opacity="1.00" d=" M 486.79 89.83 C 490.62 87.47 495.39 87.74 499.66 88.47 C 504.42 89.23 507.74 93.02 511.20 96.02 C 514.78 103.41 513.54 112.25 509.45 119.17 C 504.79 121.02 500.35 124.34 495.07 123.73 C 488.09 123.91 482.23 119.03 478.87 113.31 C 477.61 109.69 477.85 105.73 478.11 101.96 C 478.48 96.66 482.44 92.45 486.79 89.83 Z" />
<path fill="#fcfc37" opacity="1.00" d=" M 360.31 336.21 C 365.27 334.77 371.50 338.46 371.15 344.01 C 371.64 350.38 363.27 354.47 358.31 350.70 C 352.98 347.25 354.09 337.99 360.31 336.21 Z" />
<path fill="#fcfc37" opacity="1.00" d=" M 395.33 336.28 C 398.90 335.34 403.37 336.39 405.73 339.33 C 406.56 342.35 406.56 345.64 405.73 348.65 C 403.46 351.93 398.96 352.85 395.31 351.69 C 391.74 349.57 388.94 344.93 390.65 340.79 C 391.32 338.60 393.20 336.99 395.33 336.28 Z" />
</g>
<g id="#fccf00ff">
<path fill="#fccf00" opacity="1.00" d=" M 257.81 193.83 C 279.44 193.07 298.99 211.69 301.18 232.86 C 302.95 244.15 299.12 255.59 292.89 264.93 C 285.52 275.02 273.48 280.86 261.28 282.47 C 259.85 282.28 258.43 282.10 257.01 281.92 C 256.81 276.33 256.81 270.73 256.95 265.14 C 264.69 264.73 272.39 261.41 277.32 255.30 C 284.05 247.66 285.59 236.09 281.21 226.91 C 277.01 217.49 267.06 211.58 256.92 211.14 C 256.90 205.37 256.42 199.51 257.81 193.83 Z" />
<path fill="#fccf00" opacity="1.00" d=" M 218.38 335.51 C 221.96 334.53 226.31 335.20 228.71 338.27 C 230.87 341.24 230.83 345.28 229.50 348.59 C 228.40 352.93 222.80 353.07 219.18 352.70 C 211.19 351.22 210.69 337.82 218.38 335.51 Z" />
<path fill="#fccf00" opacity="1.00" d=" M 289.38 335.49 C 294.95 333.35 301.83 337.77 301.61 343.86 C 301.06 347.19 299.47 350.61 296.60 352.54 C 292.88 353.66 288.57 352.97 285.57 350.44 C 284.04 348.64 283.55 346.19 283.29 343.91 C 282.85 340.04 285.93 336.70 289.38 335.49 Z" />
<path fill="#fccf00" opacity="1.00" d=" M 324.38 335.51 C 330.52 333.08 338.50 338.87 336.54 345.60 C 335.61 351.77 328.08 354.88 322.78 352.19 C 317.28 348.32 317.46 337.68 324.38 335.51 Z" />
</g>
<g id="#f80000ff">
<path fill="#f80000" opacity="1.00" d=" M 239.70 217.68 C 244.48 213.59 250.74 211.68 256.92 211.14 C 267.06 211.58 277.01 217.49 281.21 226.91 C 285.59 236.09 284.05 247.66 277.32 255.30 C 272.39 261.41 264.69 264.73 256.95 265.14 C 246.47 264.76 236.52 258.28 232.33 248.62 C 227.72 238.14 231.04 225.05 239.70 217.68 M 259.36 221.43 C 255.12 222.99 252.39 227.54 252.92 232.02 C 252.59 237.86 258.33 242.79 264.01 242.27 C 270.32 242.59 275.38 236.02 274.23 229.98 C 273.89 222.97 265.53 218.84 259.36 221.43 Z" />
</g>
<g id="#fc9d24ff">
<path fill="#fc9d24" opacity="1.00" d=" M 259.36 221.43 C 265.53 218.84 273.89 222.97 274.23 229.98 C 275.38 236.02 270.32 242.59 264.01 242.27 C 258.33 242.79 252.59 237.86 252.92 232.02 C 252.39 227.54 255.12 222.99 259.36 221.43 Z" />
</g>
<g id="#00ab09ff">
<path fill="#00ab09" opacity="1.00" d=" M 168.31 238.27 C 176.68 235.15 186.70 241.99 186.46 250.99 C 187.07 258.11 181.08 264.77 174.02 265.25 C 167.38 266.08 160.74 261.31 159.17 254.86 C 157.23 248.03 161.63 240.39 168.31 238.27 Z" />
<path fill="#00ab09" opacity="1.00" d=" M 335.38 238.34 C 343.22 235.00 353.22 240.42 354.26 248.98 C 355.67 256.54 349.76 264.57 342.03 265.14 C 334.42 266.08 326.95 259.67 326.71 252.02 C 326.31 246.21 329.91 240.41 335.38 238.34 Z" />
</g>
<g id="#fcce00ff">
<path fill="#fcce00" opacity="1.00" d=" M 383.57 299.66 C 394.38 299.18 405.24 299.05 416.04 299.66 C 418.63 300.53 421.57 301.39 423.17 303.81 C 425.07 306.84 425.09 311.09 423.00 314.04 C 421.19 316.26 418.27 317.00 415.78 318.15 C 415.72 335.40 415.74 352.66 415.76 369.91 C 418.80 371.39 422.67 372.53 424.00 375.99 C 425.71 379.75 424.10 384.42 420.75 386.69 C 418.49 388.24 415.60 388.06 413.00 388.23 C 403.28 388.27 393.56 388.33 383.85 388.09 C 386.02 385.44 389.36 382.86 389.04 379.06 C 388.38 374.36 383.99 370.21 379.06 370.86 C 366.43 371.15 353.77 370.27 341.18 371.46 C 309.47 370.72 277.72 371.31 246.00 371.12 C 234.35 371.37 222.67 370.63 211.05 371.49 C 210.02 371.07 209.00 370.66 207.97 370.27 C 229.30 369.75 250.66 370.18 272.00 370.04 C 291.33 370.13 310.67 369.85 330.00 370.24 C 334.98 370.31 339.95 370.07 344.92 369.85 C 345.16 354.55 344.86 339.26 345.07 323.97 C 345.01 321.51 345.32 318.53 342.98 316.97 C 354.99 317.37 367.02 316.92 379.04 317.31 C 383.74 317.96 387.90 314.19 388.95 309.82 C 389.35 305.68 385.73 302.75 383.57 299.66 M 360.31 336.21 C 354.09 337.99 352.98 347.25 358.31 350.70 C 363.27 354.47 371.64 350.38 371.15 344.01 C 371.50 338.46 365.27 334.77 360.31 336.21 M 395.33 336.28 C 393.20 336.99 391.32 338.60 390.65 340.79 C 388.94 344.93 391.74 349.57 395.31 351.69 C 398.96 352.85 403.46 351.93 405.73 348.65 C 406.56 345.64 406.56 342.35 405.73 339.33 C 403.37 336.39 398.90 335.34 395.33 336.28 Z" />
<path fill="#fcce00" opacity="1.00" d=" M 183.37 335.44 C 186.50 334.60 190.51 334.49 192.80 337.20 C 195.99 340.00 195.19 344.86 194.54 348.58 C 191.65 353.83 182.72 354.92 179.29 349.71 C 175.67 345.10 176.88 336.63 183.37 335.44 Z" />
</g>
<g id="#fcfc3bff">
<path fill="#fcfc3b" opacity="1.00" d=" M 340.98 300.01 C 355.17 299.35 369.37 299.79 383.57 299.66 C 385.73 302.75 389.35 305.68 388.95 309.82 C 387.90 314.19 383.74 317.96 379.04 317.31 C 367.02 316.92 354.99 317.37 342.98 316.97 L 342.09 316.91 C 339.52 315.40 336.53 313.34 336.62 309.99 C 336.02 306.04 338.51 302.76 340.98 300.01 Z" />
</g>
<g id="#fcbd00ff">
<path fill="#fcbd00" opacity="1.00" d=" M 207.90 317.85 C 208.18 317.50 208.72 316.80 208.99 316.45 C 218.62 317.52 228.33 316.65 238.00 316.93 C 271.81 317.07 305.62 316.63 339.42 317.16 C 337.30 317.57 335.19 318.14 333.03 318.15 C 291.32 317.82 249.60 318.40 207.90 317.85 Z" />
</g>
</svg>
