<?xml version="1.0" encoding="utf-8"?>
<svg width="849pt" height="794pt" viewBox="0 0 849 794" version="1.1"
     xmlns="http://www.w3.org/2000/svg">
    <g id="#000000ff">
        <path fill="currentColor" opacity="1.00"
              d=" M 118.90 3.45 C 132.77 0.85 146.94 0.32 161.01 1.00 C 189.34 0.90 217.67 1.24 246.00 0.74 C 300.68 0.75 355.36 0.76 410.04 0.74 C 433.37 1.37 456.72 0.70 480.05 1.13 C 494.57 3.23 509.19 5.83 522.85 11.38 C 533.31 14.84 543.31 21.61 548.44 31.60 C 553.63 45.29 556.74 59.65 559.79 73.95 C 564.65 93.45 567.71 113.34 571.47 133.08 C 576.18 158.47 581.00 183.87 587.42 208.90 C 596.96 244.51 606.12 280.23 615.59 315.86 C 617.69 324.42 619.82 332.98 622.50 341.38 C 623.98 350.99 623.74 360.87 622.33 370.48 C 617.84 393.69 612.82 416.82 606.37 439.58 C 603.46 451.72 599.58 463.60 596.64 475.74 C 594.67 481.79 594.09 488.34 590.87 493.93 C 588.03 499.02 585.79 504.48 582.14 509.07 C 573.76 503.65 564.21 500.73 554.94 497.26 C 534.80 490.39 513.33 488.53 492.16 489.00 C 494.48 482.93 497.79 477.33 500.53 471.47 C 501.66 469.09 503.31 467.02 504.96 464.98 C 504.58 460.25 504.82 455.47 505.83 450.82 C 507.32 444.30 506.59 437.55 507.20 430.94 C 507.56 427.65 508.49 424.46 508.72 421.15 C 509.73 409.30 512.05 397.63 514.25 385.95 C 515.27 380.17 516.80 374.50 518.48 368.88 C 514.68 360.20 510.37 351.74 505.40 343.67 C 500.60 334.98 496.27 326.03 491.88 317.13 C 489.33 310.45 487.16 303.60 485.52 296.63 C 483.46 288.55 481.14 280.41 481.03 272.02 C 480.84 270.62 481.31 268.94 480.20 267.84 C 477.59 264.69 473.94 262.70 470.57 260.49 C 461.93 255.05 453.50 249.20 444.29 244.73 C 439.87 242.10 434.61 239.75 429.42 241.52 C 422.62 245.22 418.76 252.26 413.90 257.98 C 402.67 273.81 389.89 288.65 380.88 305.93 C 374.06 319.98 368.92 334.84 365.64 350.11 C 364.74 354.16 366.02 358.23 366.80 362.19 C 369.67 375.60 376.14 387.81 381.83 400.18 C 386.58 407.73 390.99 415.49 395.86 422.99 C 400.11 431.12 406.31 437.94 411.40 445.52 C 416.80 453.17 424.87 458.24 432.53 463.34 C 447.90 473.77 463.90 483.73 476.72 497.35 C 488.52 508.34 499.70 520.36 507.29 534.71 C 510.87 541.76 514.64 548.83 516.57 556.54 C 519.38 567.12 519.72 578.20 518.98 589.06 C 517.41 595.00 514.99 601.04 510.28 605.23 C 503.96 611.48 494.68 614.43 485.90 612.94 C 477.47 612.01 470.23 607.33 462.38 604.55 C 454.65 601.61 447.64 597.12 440.06 593.83 C 427.96 588.03 416.20 581.55 404.07 575.80 C 394.89 571.20 386.26 565.58 377.01 561.10 C 370.19 556.88 362.93 553.37 356.41 548.67 C 346.13 541.43 336.65 532.94 328.91 523.00 C 321.29 513.37 311.63 505.66 303.46 496.53 C 295.56 487.43 287.34 478.57 278.14 470.77 C 273.60 467.05 269.71 462.62 265.26 458.79 C 241.29 437.37 213.44 421.12 186.95 403.13 C 183.20 400.59 179.34 398.17 175.91 395.20 C 168.51 388.90 160.56 383.26 153.40 376.69 C 150.75 374.25 148.40 371.50 145.51 369.33 C 138.01 363.63 131.35 356.93 124.92 350.07 C 117.93 342.71 109.94 336.42 102.54 329.50 C 92.65 320.43 83.27 310.77 74.72 300.42 C 71.57 296.52 67.54 293.44 64.39 289.55 C 60.03 284.32 55.74 279.03 51.14 274.01 C 38.43 256.84 22.45 241.42 15.21 220.86 C 8.06 201.95 3.59 181.95 2.42 161.75 C -0.28 146.95 0.64 131.76 3.20 117.02 C 6.90 93.76 15.70 71.09 30.29 52.46 C 34.86 46.68 39.26 40.57 45.36 36.30 C 57.48 26.41 70.59 17.34 85.59 12.47 C 96.24 7.98 107.63 5.78 118.90 3.45 Z"/>
        <path fill="currentColor" opacity="1.00"
              d=" M 569.74 46.20 C 573.28 47.28 576.80 48.44 580.24 49.79 C 607.98 62.20 636.28 73.38 664.58 84.48 C 669.63 86.35 673.66 90.00 677.97 93.09 C 708.34 115.41 738.90 137.46 769.26 159.79 C 772.46 162.19 775.98 164.30 778.48 167.49 C 800.47 195.83 822.61 224.05 844.69 252.31 C 847.41 256.21 848.15 261.05 849.00 265.62 L 849.00 269.53 C 848.17 274.29 846.33 279.29 842.36 282.32 C 836.86 286.41 829.76 287.41 823.10 287.94 C 806.55 288.70 790.19 283.84 775.45 276.60 C 772.76 268.29 768.49 260.64 765.47 252.47 C 757.12 234.85 751.91 215.23 738.72 200.35 C 732.72 193.63 727.54 186.18 720.91 180.04 C 713.42 172.84 705.01 166.65 697.79 159.16 C 672.76 137.17 646.89 116.10 622.00 93.92 C 614.89 89.17 609.89 82.02 602.89 77.13 C 597.80 73.60 593.65 68.98 589.41 64.53 C 583.17 58.06 574.76 53.85 569.74 46.20 Z"/>
        <path fill="currentColor" opacity="1.00"
              d=" M 575.78 73.72 C 582.86 77.97 587.18 85.38 594.09 89.84 C 600.29 93.88 604.37 100.34 610.52 104.45 C 613.88 106.65 616.84 109.38 619.53 112.36 C 622.91 116.13 627.47 118.49 631.15 121.92 C 633.24 123.79 635.13 125.87 637.21 127.76 C 646.73 135.20 655.58 143.45 664.98 151.05 C 671.67 156.40 677.59 162.64 684.55 167.66 C 691.29 173.11 696.55 180.21 703.63 185.27 C 710.71 190.52 716.28 197.42 721.76 204.24 C 726.30 208.81 730.30 213.89 733.61 219.42 C 739.89 228.64 742.65 239.61 747.51 249.56 C 749.76 253.83 750.89 258.59 753.17 262.85 C 755.60 267.29 756.78 272.27 759.14 276.75 C 761.65 281.50 763.00 286.76 765.44 291.56 C 768.03 296.48 769.55 301.87 772.11 306.81 C 774.67 311.79 776.08 317.27 778.78 322.19 C 781.57 327.35 783.09 333.07 785.78 338.28 C 789.47 345.38 790.98 353.30 793.04 360.96 C 796.76 375.89 798.26 391.24 800.26 406.47 C 802.30 420.21 800.61 434.13 801.27 447.95 C 801.51 456.97 799.40 466.19 794.85 474.01 C 790.94 479.60 785.21 485.13 777.95 485.23 C 773.75 485.25 769.48 485.38 765.36 484.59 C 759.69 482.63 753.74 480.95 748.98 477.13 C 737.57 469.36 730.22 457.33 723.25 445.74 C 721.25 442.43 720.27 438.66 718.79 435.13 C 710.16 416.76 705.83 396.58 704.42 376.41 C 690.60 361.19 677.67 344.73 668.98 325.95 C 662.99 314.14 658.46 301.61 655.39 288.74 C 654.84 285.58 654.26 282.40 652.98 279.45 C 639.73 277.23 628.55 269.15 617.05 262.72 C 616.58 256.23 613.67 250.30 612.46 243.97 C 609.63 233.31 607.02 222.60 603.94 212.02 C 601.37 203.11 599.69 193.99 597.18 185.07 C 589.97 147.97 582.69 110.88 575.78 73.72 Z"/>
        <path fill="currentColor" opacity="1.00"
              d=" M 506.10 504.86 C 523.24 504.17 540.20 508.17 556.29 513.75 C 567.60 518.60 578.82 523.91 588.81 531.18 C 593.80 534.52 598.12 538.74 603.02 542.20 C 609.16 546.71 613.31 553.23 618.20 558.94 C 624.19 565.84 628.90 573.71 633.40 581.63 C 637.05 587.49 638.88 594.22 641.63 600.51 C 646.01 613.89 649.77 627.79 649.26 641.99 C 648.97 652.91 650.13 664.01 647.70 674.76 C 646.01 683.47 643.91 692.16 640.46 700.36 C 635.14 716.21 625.73 730.36 615.18 743.20 C 604.07 756.67 589.92 767.31 574.76 775.82 C 556.43 785.94 535.80 791.97 514.89 793.13 C 501.92 793.57 488.82 793.23 476.07 790.66 C 467.71 788.22 459.17 786.30 451.14 782.87 C 432.94 775.60 416.57 764.14 402.72 750.36 C 391.83 739.45 383.17 726.54 375.90 713.01 C 370.91 701.70 366.10 690.13 364.27 677.82 C 359.89 659.29 359.62 639.73 364.18 621.21 C 366.05 606.84 372.20 593.52 378.07 580.42 C 381.74 581.13 385.18 582.61 388.39 584.50 C 396.75 588.68 404.68 593.67 413.02 597.89 C 426.39 604.20 439.27 611.59 453.10 616.92 C 460.78 620.97 469.07 623.63 477.16 626.77 C 484.85 629.72 493.39 629.10 501.26 627.19 C 505.22 626.14 509.37 625.23 512.74 622.77 C 520.84 617.13 528.41 609.79 531.46 600.15 C 536.41 587.01 535.50 572.59 533.04 559.03 C 529.23 542.57 522.11 526.86 511.82 513.43 C 509.69 510.73 507.76 507.87 506.10 504.86 Z"/>
    </g>
</svg>
