<?xml version="1.0" encoding="utf-8"?>
<!-- Generator: Adobe Illustrator 24.0.1, SVG Export Plug-In . SVG Version: 6.00 Build 0)  -->
<svg version="1.1" id="Слой_1" xmlns="http://www.w3.org/2000/svg" xmlns:xlink="http://www.w3.org/1999/xlink" x="0px" y="0px"
	 viewBox="0 0 229 232.3" style="enable-background:new 0 0 229 232.3;" xml:space="preserve">
<g id="_x23_000000ff">
	<path d="M143.4,9.1c1.9-5,6.7-9,12.1-9.1c11.2-0.2,22.4,1.7,32.9,5.3c12.1,4.2,23.5,11.4,31,22c9.2,15,12.1,34,6,50.7
		c-0.7,3.6-4.4,7.1-8.3,5.8c-5.6-1.7-11.8-2.4-16.7-5.8c0.1-1.6,0.6-3.1,2.1-3.9c3.9-2.5,6.8-6.5,7.9-11c3.4-11.9-0.7-25-9-33.9
		c-8.3-8.9-19.7-15.2-31.9-16c-5.3,0.4-10.7,2.6-14.3,6.7c-4,4.4-5.4,10.5-4.7,16.3c1.7,11.1,7,21.3,13.8,30.1
		c12.8,15.4,32.1,23.6,51.2,27.8c3.8,0.9,7.8,1.2,11.6,2.3c3,2.3,2.1,7.6-0.4,10.1c-2.6,3.3-7.3,2.5-11,3.3
		c-9.1,0.9-18.2,2.9-26.9,5.8c-4.6,1.6-9.3,3.7-14.3,2.8c-5.2-1.2-10-3.9-14.8-6.3c-16.5-9.6-29.9-23.7-41-39
		c-2.2-3.2-5.2-6.6-4.6-10.7c0.2-3.2,2.4-5.7,4.1-8.3C128.3,40,136.8,25,143.4,9.1z"/>
	<path d="M166,24.7c5-2,10.5,0,15.1,1.9c8.8,4.3,17.4,10.8,20.7,20.4c0.6,2.2,1.7,4.7,0.6,6.9c-3.1,3.8-8.7,4.3-12.9,2.3
		c-3.6-1.5-6.1-5.1-10-5.9c-4.6-0.7-7,6.1-11.6,3.6c-3.6-5.4-5.9-11.6-6.9-17.9C159.7,31.7,162,26.7,166,24.7z"/>
	<path d="M99,70.8c2.6-0.9,5.5,0.8,7,3c9.1,11.7,18.1,23.9,29.8,33.3c6.3,5.5,13.4,10.1,20.6,14.5c3,1.8,5.4,5.7,3.8,9.2
		c-1.7,4.1-6.4,5-9.8,7.3c-8,4.5-13.6,11.9-18.9,19.1c-1.5,1.9-2.7,4.1-4.8,5.4c-3.9,2.7-9.4,2.7-13.4,0.2
		c-10.3-5.9-19.2-14.2-26.7-23.3c-6.1-7.6-10.7-16.2-15.4-24.7c-1.6-3.3-4.2-6.5-3.6-10.4c0-4.1,5-9.6,8.9-5.7
		c4.2,5.8,7.5,12.4,12.5,17.6c2.6,2.4,7.4,0.7,7.9-2.9c0.5-2-0.4-4-1.6-5.5c-3.6-4.8-7.2-9.7-9.7-15.2c-1.7-3.2-0.5-7,1.4-9.8
		c2-2.3,4.3-4.5,6.2-6.9C94.8,73.8,96.3,71.4,99,70.8 M104,122.5c-4.3,1.9-3.8,8.6,0.8,9.7c3.6,1.1,7.8-2.8,6.3-6.4
		C110.1,122.9,106.7,121.3,104,122.5z"/>
	<path d="M52.8,120.5c1.9-1.4,4.1-3.2,6.7-2.6c2.5,0.1,3.8,2.6,4.8,4.6c8,17.9,21,33.8,38,43.9c2.2,1.4,5,2.6,5.8,5.4
		c1.4,2.7-1.2,5.2-2.6,7.3C96.3,191,88.2,203.6,81,216.8c-2.3,4-4,8.4-6.8,12.1c-4,4-9.8,2.3-14.8,2.2c-6.3-0.9-12.6-1.9-18.6-4.1
		c-1.3-0.9-2.6-2.7-1.9-4.3c3-8.5,7.5-16.5,10.4-25.1c-0.4-0.4-1.3-1.1-1.8-1.4C39.8,202,33,209,25.3,215c-3.4,3.1-6.9-1.2-9.1-3.6
		c-2.8-3.2,0.7-6.9,1.2-10.3c0-3-1.4-6.2-4-7.8c-2.7-1.9-6.4-1.1-9-3c-2.4-4.3-2.8-9.5-3.7-14.3c-0.3-5.6-1.3-11.2-0.2-16.8
		c0.9-4.5,4.5-7.7,8.3-9.8C24.1,140.8,38.9,131.2,52.8,120.5z"/>
	<path d="M140.5,168.2c0.1-9.8,11.6-17.7,20.7-13.7c5.9,2.4,8.9,8.8,9.3,14.8c0.1,7.2-0.1,14.5,0.1,21.7
		c7.4,5.7,14.4,11.7,21.7,17.6c2.6,2.6,1.1,7.2-2.3,8.2c-2.2,1-4.3-0.8-5.9-2c-11.4-9.3-22.7-18.6-34.1-27.8
		C144.3,182.4,139.9,175.6,140.5,168.2 M150.5,170.1c0.8,5.6,5.8,9.1,10,12.3c-0.1-4.4,0.1-8.8-0.1-13.2c-0.4-2.3-1.5-5.3-4.1-5.9
		C153,163.5,149.7,166.5,150.5,170.1z"/>
	<path d="M163.1,210.7c3.7-2.1,7.9,1.6,7.5,5.5c-0.4,4.8,1.2,10.3-1.4,14.6c-1.5,2-4.1,1.6-6.3,1.4c-3.8-2.8-2-7.9-2.4-12
		C160.8,217,159.4,212.3,163.1,210.7z"/>
</g>
</svg>
