<?xml version="1.0" encoding="utf-8"?>
<!-- Generator: Adobe Illustrator 24.0.1, SVG Export Plug-In . SVG Version: 6.00 Build 0)  -->
<svg version="1.1" id="Слой_1" xmlns="http://www.w3.org/2000/svg" xmlns:xlink="http://www.w3.org/1999/xlink" x="0px" y="0px"
	 viewBox="0 0 787.6 792.9" style="enable-background:new 0 0 787.6 792.9;" xml:space="preserve">
<g id="_x23_000000ff">
	<path d="M367.9,0.7c70,0.3,140-1.6,210-0.1c7.3-0.2,14.3,2.5,21,5.2c16,6.6,29.4,18.9,38.4,33.6c11.9,19.3,17.5,41.9,19.2,64.3
		c0.7,10,1.3,20.8-3.6,30c-3.7,6.9-10.8,12.7-18.9,13c-143.4,0-286.8,0-430.1,0c-8.7-0.1-17.6-4-22.6-11.4
		c-5.5-8-8.5-17.3-13.3-25.6c-7.6-14.1-18.9-25.9-32-35C109,55.3,74.6,48.4,41.9,51.2c-5.1,0.3-9.8,3.3-14.9,2.4
		c-2.5-0.4-4.3-2.5-5.2-4.8C39.9,21.9,70,2.1,102.8,0.7C191.2,0.6,279.5,0.7,367.9,0.7z"/>
	<path d="M52.3,86.3c16.4-1.6,33.3,1.3,48,8.8c18.2,9.3,32.9,24.9,41.9,43.2c2.9,5.8,4.8,12.2,8.4,17.7
		c7.2,11.3,18.7,19.3,31.2,23.8c5.8,2,11.8,4,18.1,3.9c112,0.2,224,0.8,336,0.2c8.1,0.1,16.3-0.9,24.4,0.6
		c10.3,1.7,20.2,6.7,27.3,14.5c4.5,4.5,7.2,10.3,10.1,15.9c36.7,68.6,73.4,137.2,110.1,205.9c26.8,48.6,49.3,99.6,65.2,152.8
		c5.9,20.3,11.2,41,13.4,62.1c2.3,22.6,1.8,45.8-4.7,67.7c-5.1,17.3-14.1,33.5-26.7,46.4c-20,20.8-47.7,32.6-75.6,38.2
		c-14.3,2.9-28.9,4.1-43.4,3.8c-100.7,0.8-201.3,1.5-302,1.2c-41-0.3-82-0.3-123-1.8c-19-0.5-38-3.6-55.7-10.7
		c-16-6.3-30.7-15.9-42.8-28.3c-7.6-8.2-15.1-17.1-17.9-28.2c-7.5-25.9-7.5-55.4,6.3-79.2c9.8-13.7,22.3-26.4,38-33
		c15.4-6.5,33.6-5.2,48.2,2.6c18.4,11.5,25,38.5,13.4,57c-4,6.6-12.1,10.1-19.6,8.3c-5.7-0.7-9.3-5.7-14.3-7.9
		c-5.4-2.6-12.2-3.9-17.7-1c-6.3,3.4-10.8,10.5-9.8,17.7c0.9,6.7,5.5,12.3,10.9,16c11,7.7,24.2,12.9,37.8,12.7
		c12.2-0.2,24.1-5.2,33-13.5c8.5-8.8,16.2-18.9,19.1-30.9c3-12.1,1.2-24.7-0.6-36.8c-2-11.2-3.6-22.5-6.1-33.6
		c-4.4-17.1-11.2-33.5-18.3-49.7c-15.3-34.1-32.9-67.2-51.3-99.8C131.4,397,99.3,341.2,67.4,285.1c-18.1-32-36.3-64-53.5-96.5
		c-9-16.8-15.2-35.7-13.7-55c1-13.6,7.2-27.1,18.2-35.4C28.1,90.8,40.3,87.3,52.3,86.3 M154.3,252.4c-10.1,2.6-14.9,16.1-8.6,24.5
		c3.1,4.5,8.6,7.1,14.1,6.9c55.7,0,111.5,0,167.2,0c5.4,0,10.6-2.9,13.4-7.5c3.3-5.1,3.3-12,0-17.1c-2.8-4.5-8.1-7.5-13.4-7.4
		c-55.7,0-111.5,0-167.2,0C157.9,251.7,156.1,251.8,154.3,252.4 M382.3,252.4c-7.6,2.1-12.8,10.5-11.1,18.3
		c1.2,7.3,8.2,13.1,15.6,13c49,0,98.1,0,147.2,0c5.2,0.2,10.5-2.1,13.6-6.3c3.7-4.8,4.3-11.7,1.5-17c-2.6-5.2-8.3-8.7-14.1-8.7
		c-49.1,0-98.1,0-147.2,0C385.9,251.7,384.1,251.8,382.3,252.4 M195.2,332.1c-4.8,1.1-8.9,4.5-10.9,8.9c-3.4,7-0.6,16.2,6,20.2
		c4,2.7,9,2.6,13.6,2.5c80.3,0,160.7,0,241,0c4.2,0,8.7,0.5,12.7-1.5c6.5-2.9,10.5-10.5,9.1-17.5c-1.2-7.3-8.2-13.1-15.6-13
		c-83.7,0-167.4,0-251.2,0C198.2,331.7,196.7,331.8,195.2,332.1 M511.3,332.4c-7.6,2.1-12.8,10.5-11.1,18.3
		c1.2,7.4,8.2,13.2,15.7,13c19.7,0,39.4,0,59.1,0c5.1,0,10.2-2.6,13.1-6.9c3.5-4.9,3.8-11.8,0.8-17.1c-2.8-4.9-8.2-8.1-13.8-8.1
		c-19-0.1-38.1,0-57.1,0C515.6,331.7,513.4,331.7,511.3,332.4 M224.3,412.4c-7.6,2.1-12.8,10.5-11.1,18.3c1.2,7.4,8.2,13.2,15.7,13
		c19.7,0,39.4,0,59.1,0c5.1,0,10.2-2.6,13.1-6.9c3.4-4.7,3.8-11.3,1.1-16.4c-2.6-5.2-8.3-8.7-14.1-8.7c-19-0.1-38.1,0-57.1,0
		C228.6,411.7,226.4,411.7,224.3,412.4 M344.3,412.4c-7.6,2.1-12.8,10.5-11.1,18.3c1.2,7.3,8.2,13.1,15.6,13c85.4,0,170.8,0,256.2,0
		c8.5,0.2,16.1-7.5,15.9-16c0.2-8.5-7.4-16.2-15.9-16c-85.1,0-170.1,0-255.2,0C347.9,411.7,346.1,411.8,344.3,412.4 M256.2,492
		c-5.1,0.9-9.7,4.4-11.8,9.1c-2.7,5.6-1.5,12.8,2.8,17.3c3.4,3.8,8.6,5.6,13.7,5.3c74.7,0,149.4,0,224.2,0
		c5.7,0.2,11.4-2.7,14.4-7.5c3.3-5,3.3-11.9,0-16.9c-3.1-4.8-8.8-7.7-14.4-7.5c-63.7,0-127.4,0-191.1,0
		C281.3,491.9,268.7,491.3,256.2,492 M615.2,496.1c-4.8,0.8-8.6,3.9-12.8,6.1c-7.6,4.7-16.6,7.1-25.6,7c-6,0-12.4-0.7-17.7,2.6
		c-6,3.1-8.6,9.7-11.9,15.2c-3.1,5.6-7.7,10.3-12.8,14.3c-6.5,4.8-15.4,7.1-19.4,14.7c-3.2,5-2.5,11.1-2.5,16.8
		c0.3,9-1.9,18.2-6.7,26c-3,5.3-7,10.5-6.8,17c-0.3,6.5,3.8,11.7,6.8,17.1c4.8,7.7,6.9,16.9,6.7,25.9c0,3.9-0.4,7.9,0.5,11.8
		c1.4,5.5,5.1,10.3,10.1,12.9c6.5,3.6,13.2,7.1,18.1,12.9c5.1,5,7.6,11.7,11.5,17.5c3.7,5.1,9.8,8.4,16.1,8.4
		c8.8-0.1,18-0.4,26.3,3.2c6,2.3,11.1,6.5,17,9c6,2.3,12.8,1.2,18.1-2.3c7.2-4.5,14.9-8.7,23.5-9.6c6.6-0.9,13.4,0.3,19.9-0.9
		c4.9-1.4,9.5-4.5,12.2-8.9c1.5-2.5,2.9-5.1,4.4-7.6c3.8-7.1,9.7-13.2,16.7-17.3c5.6-3.5,12.5-6,15.8-12.2c3.8-6,2.6-13.3,2.8-19.9
		c0-8.3,2.5-16.4,6.9-23.5c2.9-5.2,6.8-10.4,6.5-16.6c0.3-6.2-3.6-11.4-6.5-16.6c-4.3-7-6.9-15.2-6.8-23.5c-0.2-6.7,1-13.9-2.8-19.9
		c-4.1-7.5-12.9-9.7-19.4-14.5c-5-3.9-9.6-8.7-12.7-14.3c-3.3-5.5-5.8-12-11.9-15.1c-5.7-3.6-12.6-2.5-18.9-2.6
		c-9.1,0-18.1-2.8-25.7-7.7C628.6,497.9,622.1,494.4,615.2,496.1 M284.3,572.4c-9.3,2.5-14.4,14.2-9.7,22.6
		c2.6,5.2,8.3,8.7,14.1,8.7c52.1,0.1,104.1,0,156.2,0c4.7,0.2,9.5-1.7,12.7-5.2c5.4-5.6,5.6-15.2,0.5-21.1
		c-3.4-4.2-8.9-6.1-14.2-5.8c-51.4,0-102.7,0-154.1,0C287.9,571.7,286.1,571.8,284.3,572.4 M314.3,652.4
		c-7.6,2.1-12.8,10.5-11.1,18.3c1.2,7.4,8.2,13.2,15.7,13c33,0,66.1,0,99.1,0c8.5,0.2,16.2-7.5,16-16c0.2-8.5-7.4-16.2-15.9-16
		c-32.4-0.1-64.8,0-97.1,0C318.6,651.7,316.4,651.7,314.3,652.4z"/>
	<path d="M613.3,525.1c30.4-2.2,61.2,12.5,78.9,37.2c17.5,23.7,22.2,56.1,12.1,83.8c-9.6,27.4-33.1,49.3-61.1,57
		c-26.3,7.5-55.7,2.2-77.7-14c-25-17.9-39.7-49.1-37.2-79.8c1.2-18.3,8.3-36.1,19.8-50.3C563.8,539.1,588.1,526.5,613.3,525.1
		 M610.3,536.1c-26.7,2.7-51.3,19.9-63,43.9c-8,15.9-10.4,34.6-6.7,52c4.1,20,16.3,38.2,33.2,49.8c23.5,16.4,56,18.6,81.4,5.2
		c25.8-12.8,43.2-40.5,43.7-69.2c0.5-17.6-5.1-35.3-15.6-49.5C666.9,545.6,638,532.8,610.3,536.1z"/>
	<path d="M607,575.6c-0.7-6.6,5.3-12.9,11.9-12.6c6.6-0.3,12.6,6,11.9,12.6c0.2,4.4-2.9,8-6.3,10.3c4,8.5,8.3,16.8,12.4,25.2
		c6.1-2.5,12.3-5,18.5-7.5c-1.4-4.9-0.4-10.6,3.7-13.8c4.5-3.9,11.9-3.7,16,0.7c4.9,4.4,4.8,12.9,0,17.3c-2.7,2.8-6.6,3.5-10.3,3.5
		c-2.1,12.6-4.2,25.2-6.4,37.8c-0.9,5.4-5.8,10.1-11.4,10.1c-18.7,0.1-37.4,0-56.1,0c-5.7,0.2-10.9-4.5-11.5-10.1
		c-2.1-12.6-4.3-25.2-6.3-37.8c-4.2,0-8.7-1.1-11.3-4.6c-4.5-5.2-3.2-13.9,2.5-17.7c5.7-4.2,14.5-1.8,17.5,4.6
		c1.7,3.1,1.3,6.6,0.7,10c6.1,2.5,12.3,4.9,18.5,7.5c4.1-8.4,8.4-16.7,12.4-25.2C609.9,583.6,606.8,580,607,575.6z"/>
</g>
<g id="_x23_ffffffff">
</g>
</svg>
