<?xml version="1.0" encoding="utf-8"?>
<!-- Generator: Adobe Illustrator 24.0.1, SVG Export Plug-In . SVG Version: 6.00 Build 0)  -->
<svg version="1.1" id="Слой_1" xmlns="http://www.w3.org/2000/svg" xmlns:xlink="http://www.w3.org/1999/xlink" x="0px" y="0px"
     viewBox="0 0 198.2 213.5" style="enable-background:new 0 0 198.2 213.5;" xml:space="preserve" fill="currentColor">
<g id="_x23_ffffffff">
</g>
    <g id="_x23_000000ff">
	<path d="M145.9,12.6c1-7.6,8.6-13,16-12.6c3.5,0.6,7.1,1.7,9.6,4.4c5.2,4.5,6.3,12.7,2.9,18.5c-3.3,6.3-11.4,9.4-18.1,7.1
		c-4.6,6-9.7,11.6-14.4,17.5c-1.2,1-2.1-1-2.9-1.6c-2.3-2.5-5-4.5-7.8-6.5c5-5.7,9.7-11.6,14.6-17.3
		C146.9,19.2,144.8,15.8,145.9,12.6z"/>
        <path d="M2.2,38.8c5-8.9,19.2-9.6,25.2-1.3c3.3,2.7,1.5,8.4,5.7,10.2c5.4,2.7,10.8,5.5,16.2,8.3c-2.1,3.9-4.3,7.8-6.1,11.9
		c-5.7-3.1-11.5-6.1-17.3-8.9c-3.1,0.9-5.7,3.3-9.1,3.6C9.4,63.4,2.1,57.9,0.2,50.7C-0.1,46.6-0.3,42.3,2.2,38.8z"/>
        <path d="M60.8,62.4c8.7-12.6,24-20.5,39.4-19.7c9.6,0.1,18.9,3.8,26.5,9.5c11.4,8.7,18.4,23.1,17.7,37.5
		c0.3,11.4-4.9,22.4-12.4,30.8c-3.5,3.8-8.1,6.3-12.3,9.4c5.4,0.9,11.1,2.1,15.2,6.1c7.7,7.7,15.3,15.4,23,23
		c3.5,3,4.7,8.3,3.1,12.6c-2.5,6.2-11,8.9-16.5,4.8c-5.3-4.6-9.8-10.1-15.1-14.7c2.7,10.6,5.4,21.2,8.1,31.8
		c3.1,8.2-2.7,18.1-11.2,19.5c-4.5,1.4-9.4-0.6-12.8-3.5c-4.1-3.5-4.8-9-6.3-13.8c-5.6,0-11.2,0-16.8,0c-1.4,3.2-1.6,6.7-3.2,9.8
		c-2.6,5.3-8.8,8.5-14.6,7.9c-8.3-0.8-14.6-9.4-13.2-17.6c2.5-11.2,6-22.1,8-33.4c-4.8,4-8.8,8.8-13.4,13c-2.7,2.3-6.6,3.6-10,2.5
		c-5-1-8.8-6-8.6-11.1c0.6-2.4,1.2-5.1,3.1-6.9c8.2-8.2,16.3-16.4,24.5-24.5c4-3.7,9.5-4.7,14.7-5.6c-3.2-2.4-6.8-4.2-9.7-6.9
		c-8.8-8-14.6-19.4-15.1-31.3C52,81.4,54.8,70.9,60.8,62.4 M70.5,85.1c-7.2,2.4-8.9,12.8-3.6,17.9c3.2,3.3,8.5,3.6,12.5,1.9
		c7.1-3,7.9-13.9,1.8-18.3C78.2,84.2,74,84.3,70.5,85.1 M118.5,85.2c-7.6,2.6-8.8,14.2-2.6,18.7c3,2.4,7.3,2.3,10.8,1.4
		c7.6-2.6,8.8-14.2,2.6-18.8C126.2,84.2,122,84.3,118.5,85.2z"/>
        <path d="M169.3,60.9c2.7-4.9,8.1-8.7,13.8-8.2c10.3-0.5,18.3,11.7,13.9,21c-3.1,8.6-14.5,12.2-22.2,7.4c-1.8-1.1-3.4-2.5-4.8-4.1
		c-4.3,1.2-8.6,2.4-13,3.2c-0.7-4.4-2.9-8.6-2.8-13c4.1-0.8,8.2-1.8,12.2-3C168.2,63.9,168.5,62.1,169.3,60.9z"/>
</g>
</svg>
