<?xml version="1.0" encoding="UTF-8" ?>
<!DOCTYPE svg PUBLIC "-//W3C//DTD SVG 1.1//EN" "http://www.w3.org/Graphics/SVG/1.1/DTD/svg11.dtd">
<svg width="173pt" height="216pt" viewBox="0 0 173 216" version="1.1" xmlns="http://www.w3.org/2000/svg">
<g id="#000000ff">
<path fill="#000000" opacity="1.00" d=" M 69.69 4.69 C 97.64 -5.29 131.13 2.89 151.25 24.76 C 164.82 39.21 172.84 59.08 172.04 78.97 C 172.42 88.25 169.67 97.24 167.08 106.04 C 161.07 126.14 158.40 147.07 157.00 167.94 C 156.99 178.67 156.81 189.40 157.10 200.12 C 157.13 204.43 159.73 209.64 156.32 213.27 C 154.49 215.67 151.01 215.49 148.41 214.75 C 145.09 212.71 145.04 208.42 144.94 204.98 C 143.69 191.77 143.53 178.41 144.67 165.18 C 145.56 146.25 148.36 127.38 153.05 109.01 C 155.23 100.37 158.77 91.97 159.19 82.97 C 161.06 63.76 153.65 43.80 139.43 30.69 C 127.70 19.21 111.29 13.07 94.97 12.96 C 85.76 13.51 76.52 15.26 68.06 19.05 C 55.04 25.26 43.97 35.68 37.64 48.71 C 34.68 54.28 33.51 60.52 31.43 66.43 C 26.02 82.67 20.65 98.93 15.25 115.18 C 14.14 118.23 13.07 121.33 12.80 124.59 C 14.36 125.83 15.73 127.73 17.88 127.91 C 20.61 128.13 23.36 127.85 26.09 128.11 C 28.86 128.45 30.93 131.15 30.96 133.87 C 31.14 138.55 30.93 143.24 31.00 147.92 C 36.94 149.32 43.14 149.38 49.15 148.43 C 62.08 147.19 74.76 141.29 83.28 131.36 C 96.39 116.90 100.78 96.98 102.60 78.10 C 103.59 72.70 101.86 66.76 104.81 61.80 C 108.01 55.65 116.77 53.54 122.49 57.43 C 126.51 59.76 128.51 64.48 128.28 69.02 C 128.33 102.02 128.26 135.01 128.31 168.01 C 128.24 174.17 128.53 180.51 126.45 186.41 C 121.35 203.10 104.73 216.12 87.02 215.21 C 75.02 215.13 63.01 215.35 51.01 215.09 C 43.38 215.04 36.21 211.49 30.38 206.77 C 22.99 200.32 18.61 190.73 18.33 180.94 C 18.04 167.62 18.32 154.28 18.20 140.96 C 14.31 140.30 10.13 139.65 7.15 136.82 C 3.02 133.66 0.75 128.73 0.00 123.68 L 0.00 122.31 C 0.38 120.32 0.89 118.36 1.47 116.42 C 8.12 96.11 14.98 75.87 21.53 55.53 C 28.01 32.03 46.92 12.89 69.69 4.69 Z" />
<path fill="#000000" opacity="1.00" d=" M 51.36 89.43 C 59.24 87.01 67.48 96.34 64.03 103.83 C 62.25 109.38 55.22 112.53 49.93 110.13 C 44.36 108.28 41.31 101.25 43.74 95.91 C 45.01 92.64 47.94 90.19 51.36 89.43 Z" />
</g>
</svg>
