<?xml version="1.0" encoding="UTF-8" ?>
<!DOCTYPE svg PUBLIC "-//W3C//DTD SVG 1.1//EN" "http://www.w3.org/Graphics/SVG/1.1/DTD/svg11.dtd">
<svg width="195pt" height="233pt" viewBox="0 0 195 233" version="1.1" xmlns="http://www.w3.org/2000/svg">
<g id="#000000ff">
<path fill="#000000" opacity="1.00" d=" M 0.50 6.22 C 0.77 1.01 7.29 -0.76 11.00 2.12 C 19.05 7.38 26.89 12.97 34.97 18.20 C 41.27 14.11 47.67 10.17 53.94 6.04 C 60.18 9.21 66.24 12.73 72.64 15.56 C 79.45 11.02 86.31 6.56 93.15 2.07 C 95.68 0.21 99.29 0.41 101.79 2.22 C 108.66 6.73 115.68 11.03 122.44 15.71 C 128.77 12.54 135.10 9.37 141.35 6.04 C 147.14 10.50 153.12 14.70 158.94 19.13 C 166.98 13.38 175.25 7.95 183.40 2.35 C 185.49 0.59 188.26 0.86 190.80 0.85 C 191.85 2.01 192.95 3.14 193.84 4.45 C 194.78 7.56 193.45 10.70 192.52 13.63 C 185.30 36.08 178.34 58.61 171.02 81.02 C 172.60 87.21 172.18 93.67 172.10 100.01 C 171.98 109.90 168.30 119.21 165.73 128.63 C 159.03 154.49 156.53 181.32 156.98 207.98 C 156.70 214.72 158.65 221.37 157.87 228.11 C 157.56 230.58 155.32 232.01 153.27 233.00 L 150.40 233.00 C 147.88 231.84 145.55 229.78 145.41 226.82 C 144.51 212.93 143.39 198.96 144.75 185.05 C 145.25 169.67 147.28 154.34 150.29 139.25 C 154.53 121.14 161.99 102.90 158.85 84.00 C 148.63 84.00 138.42 83.99 128.20 84.01 C 128.22 102.34 128.17 120.67 128.22 139.00 C 129.16 150.64 128.56 162.32 128.73 173.98 C 128.54 185.57 129.82 197.85 124.74 208.67 C 118.63 222.09 105.14 231.43 90.53 233.00 L 49.41 233.00 C 37.54 231.05 26.62 223.42 21.66 212.34 C 18.86 206.64 18.49 200.19 18.27 193.95 C 18.27 182.04 18.28 170.13 18.27 158.23 C 12.60 157.88 6.75 155.38 3.61 150.47 C 0.31 145.82 -0.48 139.64 1.43 134.29 C 7.56 116.08 13.45 97.80 19.57 79.60 C 20.33 77.63 20.03 75.49 19.41 73.53 C 13.95 54.97 8.68 36.35 3.25 17.78 C 2.20 14.35 1.57 10.78 0.00 7.52 L 0.00 6.10 C 0.13 6.13 0.38 6.19 0.50 6.22 M 94.37 16.39 C 81.50 24.93 68.51 33.29 55.62 41.81 C 53.27 43.58 49.73 43.58 47.37 41.81 C 37.47 35.26 27.69 28.52 17.81 21.93 C 22.35 38.43 27.13 54.89 32.07 71.28 C 74.99 71.30 117.90 71.21 160.82 71.32 C 166.31 55.25 171.27 38.98 176.18 22.72 C 166.66 28.93 157.34 35.47 147.89 41.81 C 145.67 43.55 142.31 43.53 140.00 41.98 C 125.91 32.93 111.88 23.76 97.76 14.75 C 96.48 14.89 95.45 15.76 94.37 16.39 M 31.32 84.01 C 25.52 102.44 19.29 120.74 13.22 139.09 C 12.27 142.03 14.87 145.58 18.07 145.21 C 22.53 145.30 28.57 144.34 30.77 149.41 C 31.37 154.85 30.77 160.40 31.06 165.89 C 37.08 166.09 43.11 166.39 49.12 165.90 C 59.37 164.80 69.39 161.05 77.51 154.65 C 87.35 146.73 93.73 135.26 97.51 123.36 C 101.41 110.63 103.07 97.28 103.21 83.99 C 79.24 84.02 55.28 83.99 31.32 84.01 Z" />
<path fill="#000000" opacity="1.00" d=" M 50.30 107.26 C 55.90 105.37 62.28 108.37 64.26 113.93 C 67.17 120.49 61.10 128.83 54.00 128.31 C 48.68 128.68 43.99 124.20 43.09 119.15 C 42.19 114.13 45.76 109.11 50.30 107.26 Z" />
</g>
</svg>
