<?xml version="1.0" encoding="UTF-8" ?>
<!DOCTYPE svg PUBLIC "-//W3C//DTD SVG 1.1//EN" "http://www.w3.org/Graphics/SVG/1.1/DTD/svg11.dtd">
<svg width="195pt" height="233pt" viewBox="0 0 195 233" version="1.1" xmlns="http://www.w3.org/2000/svg">
<g id="#000000ff">
<path fill="#000000" opacity="1.00" d=" M 0.98 4.14 C 2.39 0.28 7.84 0.00 10.85 2.06 C 18.89 7.43 26.94 12.79 34.97 18.17 C 41.26 14.06 47.71 10.20 53.99 6.08 C 60.14 9.32 66.27 12.63 72.55 15.61 C 79.59 10.97 86.64 6.32 93.76 1.81 C 96.72 -0.12 100.43 1.09 103.02 3.06 C 109.46 7.29 116.02 11.34 122.44 15.60 C 128.87 12.64 135.10 9.27 141.43 6.11 C 147.18 10.58 153.09 14.83 158.93 19.18 C 167.02 13.49 175.25 7.98 183.40 2.35 C 185.41 0.66 188.10 0.96 190.55 0.90 C 191.71 2.12 192.88 3.32 194.08 4.51 C 194.00 6.76 194.04 9.07 193.30 11.23 C 186.65 31.99 180.27 52.83 173.62 73.59 C 173.04 75.45 172.43 77.57 173.58 79.37 C 180.05 92.26 184.84 105.97 188.11 120.02 C 189.06 124.37 190.27 128.84 189.50 133.32 C 188.26 142.97 182.39 152.24 173.39 156.37 C 167.72 159.52 161.08 158.88 154.91 160.02 C 144.60 161.62 135.40 168.71 131.27 178.30 C 127.27 186.16 129.48 195.36 126.69 203.55 C 124.14 212.57 117.94 220.09 110.57 225.68 C 105.17 229.64 98.61 231.49 92.19 233.00 L 51.53 233.00 C 43.23 232.06 34.97 228.90 29.12 222.78 C 22.50 216.57 18.65 207.63 18.57 198.56 C 18.29 185.11 18.53 171.65 18.46 158.20 C 11.89 158.24 5.36 154.54 2.44 148.59 C 0.05 144.24 -0.22 138.98 1.45 134.33 C 7.47 116.07 13.50 97.82 19.57 79.58 C 20.76 76.52 19.35 73.38 18.53 70.42 C 12.77 50.85 7.21 31.22 1.45 11.65 C 0.84 9.22 -0.14 6.58 0.98 4.14 M 55.10 42.19 C 53.00 43.56 50.07 43.44 48.00 42.06 C 37.88 35.55 28.03 28.61 17.83 22.23 C 22.48 38.62 27.07 55.04 32.10 71.31 C 75.02 71.25 117.94 71.22 160.86 71.33 C 166.30 55.23 171.31 38.97 176.23 22.70 C 166.63 28.93 157.29 35.55 147.70 41.80 C 145.28 43.59 141.77 43.60 139.41 41.70 C 125.49 32.56 111.45 23.60 97.57 14.41 C 83.27 23.43 69.30 32.99 55.10 42.19 M 31.35 84.01 C 25.56 102.48 19.22 120.77 13.23 139.17 C 12.52 140.84 13.65 142.43 14.20 143.96 C 19.54 146.87 27.90 142.88 31.05 149.72 C 30.99 155.10 30.99 160.48 31.07 165.87 C 38.35 166.14 45.69 166.70 52.94 165.71 C 60.00 164.34 67.05 162.10 73.03 157.99 C 84.39 149.89 91.95 137.48 96.26 124.39 C 100.66 111.40 103.07 97.71 103.21 84.00 C 79.26 84.01 55.30 83.98 31.35 84.01 Z" />
<path fill="#000000" opacity="1.00" d=" M 50.34 107.17 C 53.87 106.71 58.18 106.28 60.82 109.21 C 65.39 112.76 66.46 120.05 62.33 124.35 C 57.91 130.46 47.53 129.33 44.33 122.57 C 40.77 116.91 44.57 109.46 50.34 107.17 Z" />
</g>
</svg>
