<?xml version="1.0" encoding="UTF-8" ?>
<!DOCTYPE svg PUBLIC "-//W3C//DTD SVG 1.1//EN" "http://www.w3.org/Graphics/SVG/1.1/DTD/svg11.dtd">
<svg width="195pt" height="232pt" viewBox="0 0 195 232" version="1.1" xmlns="http://www.w3.org/2000/svg">
<g id="#000000ff">
<path fill="#000000" opacity="1.00" d=" M 4.73 1.69 C 7.42 0.42 10.06 2.34 12.26 3.71 C 18.88 8.26 25.69 12.51 32.17 17.25 C 37.14 12.48 41.90 7.49 46.82 2.67 C 49.17 0.02 53.89 0.05 56.22 2.71 C 61.13 7.56 66.01 12.44 70.91 17.29 C 78.80 12.40 86.34 6.97 94.29 2.20 C 96.50 0.66 99.25 1.25 101.33 2.69 C 108.93 7.52 116.45 12.49 124.08 17.29 C 129.30 12.42 134.11 7.11 139.40 2.32 C 141.33 0.42 144.14 0.91 146.58 0.92 C 151.63 6.12 156.82 11.18 161.88 16.36 C 162.65 17.73 163.93 16.08 164.82 15.77 C 171.36 11.31 177.81 6.72 184.46 2.44 C 187.57 0.04 192.82 1.63 193.85 5.48 C 194.81 9.08 192.99 12.59 192.00 15.97 C 186.31 33.95 180.68 51.94 175.00 69.92 C 174.17 72.82 172.50 75.74 173.32 78.85 C 174.89 86.81 175.61 95.02 174.32 103.07 C 173.35 112.19 169.99 120.78 167.71 129.61 C 163.43 146.42 161.13 163.70 159.98 180.99 C 160.13 188.01 159.20 194.99 159.22 201.99 C 160.11 209.64 159.63 217.37 160.61 225.01 C 161.08 228.05 158.70 230.59 156.26 232.00 L 152.62 232.00 C 150.75 231.13 148.85 229.87 148.31 227.75 C 146.66 217.92 147.04 207.94 146.86 198.02 C 146.84 173.39 149.72 148.68 155.87 124.80 C 158.11 116.25 161.48 107.89 161.98 98.98 C 162.12 94.33 161.99 89.68 161.86 85.03 C 147.32 84.95 132.77 85.02 118.23 85.00 C 117.90 105.15 114.44 125.82 104.62 143.65 C 95.75 159.74 80.11 172.07 62.09 176.10 C 52.85 178.60 43.22 178.11 33.75 177.83 C 33.77 184.52 33.62 191.21 33.82 197.90 C 33.78 209.07 43.81 219.22 55.00 219.23 C 63.68 219.38 72.36 219.22 81.04 219.30 C 85.33 219.25 89.78 219.46 93.86 217.90 C 102.03 215.16 108.62 208.30 111.23 200.11 C 113.68 192.69 110.81 184.60 113.24 177.21 C 114.71 173.90 118.45 173.60 121.62 173.89 C 123.11 175.68 125.44 177.33 125.01 179.97 C 124.78 188.80 126.12 198.03 122.44 206.37 C 117.27 220.19 104.00 229.98 89.52 232.00 L 51.30 232.00 C 43.37 230.40 35.70 226.76 30.20 220.72 C 24.44 214.26 20.89 205.69 20.97 196.98 C 21.03 183.70 20.99 170.42 21.00 157.14 C 9.93 157.79 0.35 146.07 3.37 135.34 C 8.87 118.03 14.79 100.86 20.50 83.61 C 21.89 79.99 19.90 76.36 19.02 72.88 C 12.96 51.91 6.80 30.96 0.86 9.96 C -0.33 6.72 1.25 2.61 4.73 1.69 M 54.99 42.92 C 52.72 44.60 49.58 44.25 47.42 42.56 C 37.54 35.97 27.70 29.32 17.81 22.75 C 22.43 39.21 27.08 55.68 32.08 72.04 C 75.02 71.98 117.95 71.99 160.89 72.03 C 166.22 55.99 171.24 39.83 176.15 23.65 C 165.96 29.76 156.49 37.06 146.43 43.39 C 143.94 44.94 141.10 43.54 138.99 42.04 C 125.16 33.09 111.24 24.26 97.50 15.18 C 83.28 24.34 69.15 33.66 54.99 42.92 M 51.43 15.88 C 48.78 18.89 45.83 21.62 43.04 24.50 C 45.99 26.17 48.71 28.19 51.52 30.07 C 54.34 28.15 57.14 26.18 60.18 24.59 C 57.24 21.71 54.36 18.76 51.43 15.88 M 143.52 15.88 C 140.74 18.88 137.76 21.68 134.85 24.56 C 137.93 26.16 140.82 28.09 143.66 30.09 C 146.45 28.18 149.21 26.21 152.14 24.48 C 149.19 21.69 146.33 18.80 143.52 15.88 M 33.24 85.00 C 27.80 102.42 21.65 119.61 16.14 137.01 C 15.62 138.50 15.92 140.11 15.95 141.65 C 16.71 142.44 17.46 143.24 18.21 144.04 C 22.96 144.84 29.39 142.86 32.68 147.37 C 34.88 152.92 33.16 159.13 33.81 164.94 C 43.71 165.49 53.89 165.81 63.40 162.53 C 75.77 158.74 86.42 150.02 92.79 138.79 C 102.48 122.62 104.78 103.46 105.89 85.01 C 81.67 84.98 57.46 85.00 33.24 85.00 Z" />
<path fill="#000000" opacity="1.00" d=" M 53.27 106.20 C 57.48 105.22 62.38 106.26 65.00 109.91 C 69.43 115.20 67.20 124.52 60.54 126.79 C 55.44 129.11 48.98 126.40 46.62 121.43 C 43.98 115.62 46.89 107.94 53.27 106.20 Z" />
</g>
</svg>
