<?xml version="1.0" encoding="UTF-8" ?>
<!DOCTYPE svg PUBLIC "-//W3C//DTD SVG 1.1//EN" "http://www.w3.org/Graphics/SVG/1.1/DTD/svg11.dtd">
<svg width="206pt" height="220pt" viewBox="0 0 206 220" version="1.1" xmlns="http://www.w3.org/2000/svg">
<g id="#000000ff">
<path fill="#000000" opacity="1.00" d=" M 64.59 4.54 C 76.31 0.67 88.81 0.32 101.03 0.99 C 120.76 2.56 140.04 10.80 154.23 24.70 C 168.14 38.78 177.28 57.12 181.59 76.35 C 186.09 95.23 185.36 114.75 184.91 134.00 C 183.70 147.33 182.15 160.62 181.08 173.96 C 180.81 181.75 180.87 189.68 182.72 197.28 C 184.35 202.94 190.33 206.07 195.94 205.97 C 199.77 205.75 203.84 206.99 206.00 210.38 L 206.00 214.37 C 204.77 216.03 203.61 218.04 201.56 218.78 C 199.22 219.23 196.84 219.46 194.53 220.00 L 141.31 220.00 C 135.31 218.51 129.10 219.46 123.00 219.21 C 115.30 218.96 107.59 219.04 99.88 218.97 C 96.30 219.02 93.37 215.39 93.95 211.89 C 94.10 209.04 96.85 207.46 98.98 206.07 C 110.13 199.25 118.35 187.75 120.95 174.92 C 122.61 168.40 121.84 161.64 122.02 155.00 C 120.81 127.90 114.01 100.89 101.13 76.94 C 92.68 60.82 81.52 46.21 68.73 33.30 C 64.84 29.17 59.09 26.46 57.02 20.86 C 54.37 14.60 58.22 6.69 64.59 4.54 Z" />
<path fill="#000000" opacity="1.00" d=" M 33.20 37.24 C 37.36 32.58 46.02 37.90 43.63 43.67 C 40.62 49.07 37.03 54.22 35.14 60.18 C 28.06 82.02 20.65 103.74 13.52 125.56 C 12.20 128.19 14.03 131.67 16.86 132.28 C 20.38 133.16 24.06 132.74 27.66 132.90 C 29.00 134.39 31.11 135.71 31.05 137.96 C 31.63 145.99 30.66 154.08 31.54 162.08 C 32.97 173.39 41.93 183.29 53.06 185.79 C 60.80 187.63 68.79 186.40 76.65 186.94 C 77.79 188.08 78.93 189.22 80.06 190.36 C 80.27 199.11 80.33 207.88 80.03 216.63 C 78.78 217.77 77.52 218.92 76.21 220.00 L 72.03 220.00 C 70.61 218.96 69.28 217.82 67.97 216.66 C 67.67 210.88 67.90 205.09 67.71 199.30 C 60.72 199.03 53.50 199.73 46.82 197.22 C 32.33 192.48 21.03 179.19 19.00 164.04 C 18.32 157.72 19.45 151.31 18.33 145.03 C 6.83 145.98 -2.56 133.15 1.27 122.40 C 8.04 101.25 15.35 80.26 22.11 59.10 C 24.60 51.30 28.13 43.70 33.20 37.24 Z" />
<path fill="#000000" opacity="1.00" d=" M 50.38 94.43 C 56.03 92.39 62.71 95.73 64.47 101.45 C 67.35 108.93 59.41 117.62 51.71 115.36 C 45.57 114.19 41.10 106.76 43.86 100.94 C 44.94 97.94 47.41 95.55 50.38 94.43 Z" />
</g>
</svg>
