<?xml version="1.0" encoding="UTF-8" ?>
<!DOCTYPE svg PUBLIC "-//W3C//DTD SVG 1.1//EN" "http://www.w3.org/Graphics/SVG/1.1/DTD/svg11.dtd">
<svg width="207pt" height="239pt" viewBox="0 0 207 239" version="1.1" xmlns="http://www.w3.org/2000/svg">
<g id="#000000ff">
<path fill="#000000" opacity="1.00" d=" M 71.43 0.94 C 73.17 0.90 74.91 0.90 76.66 0.93 C 83.52 7.36 90.07 14.12 96.67 20.82 C 103.00 14.79 108.94 8.35 115.33 2.39 C 117.26 0.45 120.08 0.81 122.55 0.99 C 129.22 7.64 135.92 14.27 142.52 20.99 C 148.81 14.74 155.00 8.36 161.38 2.20 C 163.27 0.27 166.14 0.92 168.55 1.00 C 170.17 2.69 172.41 4.53 172.02 7.16 C 172.00 9.21 170.66 10.88 169.28 12.26 C 161.89 19.57 154.59 26.97 147.20 34.29 C 144.96 36.64 140.66 36.87 138.45 34.33 C 132.16 28.23 126.07 21.92 119.81 15.79 C 112.87 22.49 106.37 29.67 99.15 36.08 C 97.16 35.89 94.75 36.53 93.28 34.79 C 86.90 28.54 80.56 22.23 74.34 15.81 C 67.12 22.29 60.85 29.79 53.43 36.05 C 51.36 35.97 48.99 36.38 47.36 34.77 C 41.54 29.23 36.01 23.39 30.25 17.79 C 28.70 16.23 26.76 14.49 26.94 12.08 C 26.34 9.37 28.75 7.74 30.31 5.98 C 32.76 5.71 35.79 5.18 37.65 7.24 C 42.25 11.72 46.69 16.38 51.32 20.82 C 57.97 14.14 64.46 7.28 71.43 0.94 Z" />
<path fill="#000000" opacity="1.00" d=" M 65.96 50.95 C 68.10 49.76 70.63 50.01 72.99 49.98 C 98.30 50.08 123.63 49.90 148.94 50.07 C 156.63 51.26 160.05 59.36 162.02 65.97 C 166.61 81.21 167.53 97.17 168.68 112.92 C 168.24 127.11 166.68 141.26 165.17 155.39 C 164.52 171.82 163.91 189.00 170.71 204.40 C 174.16 212.51 180.47 219.75 188.94 222.77 C 193.29 224.32 197.96 224.79 202.55 225.00 C 203.79 226.07 204.97 227.21 206.10 228.40 C 206.11 230.15 206.11 231.91 206.09 233.67 C 204.97 234.82 203.83 235.95 202.68 237.06 C 169.44 237.39 136.20 237.10 102.96 237.21 C 100.27 237.40 97.11 236.78 95.94 234.01 C 93.84 230.86 95.87 226.53 99.14 225.15 C 111.10 218.43 119.42 205.83 121.20 192.26 C 122.28 186.86 121.86 181.34 121.71 175.88 C 120.87 170.31 121.27 164.64 120.18 159.10 C 116.21 124.88 101.54 90.66 74.68 68.24 C 71.83 65.72 68.60 63.69 65.39 61.65 C 61.58 59.41 62.09 52.88 65.96 50.95 Z" />
<path fill="#000000" opacity="1.00" d=" M 32.85 55.82 C 35.63 52.61 41.71 53.51 43.32 57.51 C 44.51 59.45 44.00 61.83 42.79 63.61 C 39.97 68.00 37.34 72.54 35.52 77.45 C 28.05 99.97 20.60 122.49 13.17 145.02 C 12.44 147.65 14.96 150.07 17.25 150.89 C 21.78 151.52 27.92 149.31 30.62 154.35 C 32.69 165.49 28.80 177.63 33.86 188.29 C 38.17 198.04 48.34 204.76 58.98 205.02 C 64.27 205.05 69.57 204.91 74.87 205.02 C 77.08 205.13 78.51 207.08 80.00 208.47 C 80.37 217.19 80.27 225.94 80.05 234.67 C 78.97 235.81 77.88 236.96 76.78 238.10 C 74.97 238.13 73.15 238.13 71.34 238.11 C 70.19 236.98 69.06 235.84 67.95 234.68 C 67.67 229.07 67.84 223.46 67.79 217.85 C 60.20 217.78 52.37 217.93 45.20 215.00 C 31.44 209.72 20.75 196.73 18.96 182.01 C 18.62 176.01 18.88 170.00 18.79 164.00 C 14.05 163.21 8.98 162.13 5.68 158.30 C 0.97 153.72 -0.82 146.37 1.38 140.16 C 8.75 117.90 16.16 95.65 23.51 73.38 C 25.88 67.17 29.01 61.25 32.85 55.82 Z" />
<path fill="#000000" opacity="1.00" d=" M 51.31 112.49 C 59.11 109.96 67.45 118.72 64.46 126.39 C 62.70 132.21 55.49 135.89 49.88 133.18 C 44.34 131.03 41.18 123.72 44.22 118.41 C 45.42 115.37 48.27 113.39 51.31 112.49 Z" />
</g>
</svg>
