<?xml version="1.0" encoding="UTF-8" ?>
<!DOCTYPE svg PUBLIC "-//W3C//DTD SVG 1.1//EN" "http://www.w3.org/Graphics/SVG/1.1/DTD/svg11.dtd">
<svg width="175pt" height="219pt" viewBox="0 0 175 219" version="1.1" xmlns="http://www.w3.org/2000/svg">
<g id="#000000ff">
<path fill="#000000" opacity="1.00" d=" M 66.33 2.22 C 68.21 0.15 71.20 0.96 73.64 1.03 C 78.60 6.04 83.60 11.00 88.58 15.98 C 93.12 11.36 97.67 6.73 102.32 2.23 C 104.19 0.17 107.18 0.99 109.62 1.02 C 114.57 6.06 119.66 10.97 124.57 16.06 C 129.14 11.42 133.72 6.78 138.37 2.23 C 140.24 0.17 143.24 0.76 145.68 0.99 C 152.26 7.88 159.20 14.41 165.79 21.28 C 169.11 24.68 165.80 31.61 161.03 31.01 C 160.34 31.01 158.96 31.02 158.27 31.03 C 152.97 26.09 147.96 20.86 142.84 15.75 C 138.21 20.17 133.79 24.80 129.23 29.28 C 126.92 32.02 122.36 31.57 119.92 29.23 C 115.31 24.93 110.97 20.34 106.50 15.89 C 102.70 19.94 98.67 23.76 94.80 27.75 C 93.20 29.32 91.44 31.28 88.97 31.06 C 86.25 31.47 84.07 29.55 82.30 27.77 C 78.38 23.79 74.41 19.87 70.49 15.89 C 66.34 20.28 62.00 24.48 57.75 28.77 C 55.67 31.31 51.70 31.88 48.98 30.09 C 45.60 27.49 42.89 24.12 39.78 21.21 C 37.25 18.40 33.88 16.18 32.23 12.68 C 30.31 7.59 37.09 1.98 41.62 5.32 C 45.45 8.66 48.90 12.42 52.43 16.08 C 57.07 11.47 61.62 6.76 66.33 2.22 Z" />
<path fill="#000000" opacity="1.00" d=" M 31.97 36.91 C 33.06 35.21 34.90 33.90 36.98 33.93 C 41.14 33.43 45.13 38.34 43.26 42.26 C 41.89 45.39 39.74 48.10 38.21 51.15 C 34.97 57.14 33.42 63.80 31.19 70.19 C 25.30 87.63 19.69 105.18 13.73 122.61 C 13.03 124.69 12.32 127.29 14.12 129.06 C 16.53 132.04 20.75 130.67 24.05 131.02 C 26.93 130.73 29.97 132.44 30.72 135.34 C 32.13 146.49 28.71 158.50 33.96 168.99 C 37.94 177.63 46.64 183.58 55.98 184.84 C 62.00 185.36 68.05 184.71 74.08 185.06 C 77.16 185.07 80.20 187.70 79.98 190.92 C 80.01 198.28 80.08 205.66 79.96 213.03 C 80.10 216.11 76.80 217.38 74.78 219.00 L 73.24 219.00 C 71.47 217.78 68.73 217.21 68.09 214.85 C 66.53 209.38 67.52 203.61 67.27 198.02 C 60.54 198.13 53.71 197.84 47.25 195.80 C 34.04 191.72 23.29 180.54 19.80 167.15 C 17.73 159.61 18.34 151.73 18.25 144.00 C 12.11 143.35 6.03 140.49 2.82 135.00 C 0.08 130.64 -0.47 125.06 1.24 120.22 C 8.54 98.19 15.81 76.14 23.09 54.11 C 25.30 48.03 28.26 42.21 31.97 36.91 Z" />
<path fill="#000000" opacity="1.00" d=" M 92.78 39.74 C 95.69 36.59 101.97 37.37 103.31 41.70 C 104.78 44.08 103.47 46.88 101.75 48.72 C 98.68 51.99 95.34 55.01 92.30 58.31 C 96.74 62.95 101.48 67.31 105.84 72.02 C 108.12 74.16 108.35 77.89 106.22 80.20 C 101.70 85.02 96.83 89.49 92.30 94.30 C 96.73 98.96 101.51 103.30 105.84 108.05 C 108.04 110.22 108.39 113.92 106.24 116.25 C 101.68 121.09 96.81 125.65 92.18 130.43 C 96.70 135.38 101.70 139.87 106.27 144.76 C 108.45 147.02 108.06 150.75 105.78 152.78 C 100.33 158.35 94.73 163.78 89.28 169.35 C 87.56 171.08 85.61 173.05 82.98 173.04 C 79.73 172.43 76.46 169.54 76.95 165.98 C 77.04 163.65 78.81 161.87 80.29 160.26 C 84.28 156.31 88.20 152.29 92.26 148.41 C 87.83 143.40 82.72 139.04 78.27 134.06 C 75.86 131.55 76.90 127.46 79.28 125.31 C 83.56 120.97 87.88 116.65 92.26 112.40 C 87.83 107.40 82.72 103.04 78.28 98.06 C 75.88 95.56 76.84 91.44 79.26 89.31 C 83.57 84.98 87.87 80.64 92.26 76.39 C 87.79 71.31 82.51 66.99 78.18 61.78 C 75.88 59.31 76.95 55.33 79.26 53.24 C 83.76 48.74 88.23 44.20 92.78 39.74 Z" />
<path fill="#000000" opacity="1.00" d=" M 128.41 40.26 C 133.23 36.79 140.39 43.30 137.40 48.42 C 134.41 52.78 130.06 56.00 126.54 59.93 C 130.98 64.67 135.76 69.07 140.23 73.78 C 142.38 75.87 142.59 79.33 140.62 81.61 C 136.40 86.73 131.03 90.82 126.85 95.96 C 130.98 101.17 136.38 105.31 140.70 110.38 C 142.43 112.47 142.38 115.54 140.66 117.62 C 136.36 122.69 131.07 126.87 126.80 131.97 C 130.88 136.96 135.99 141.01 140.23 145.86 C 141.33 147.28 142.37 149.07 141.93 150.94 C 141.29 153.89 138.69 155.73 136.73 157.80 C 133.40 161.23 129.79 164.40 126.69 168.05 C 129.96 172.20 134.55 175.20 137.45 179.63 C 140.33 184.77 133.15 191.24 128.38 187.68 C 123.94 183.80 120.04 179.34 115.75 175.29 C 113.73 173.20 110.99 171.13 110.94 167.95 C 111.13 165.66 112.73 163.82 114.28 162.25 C 118.36 158.21 122.44 154.17 126.46 150.08 C 122.03 145.33 117.24 140.94 112.79 136.23 C 110.69 134.13 110.38 130.67 112.34 128.37 C 116.61 123.28 122.02 119.18 126.14 113.98 C 121.98 108.81 116.58 104.72 112.35 99.59 C 110.38 97.32 110.70 93.86 112.78 91.77 C 117.24 87.07 122.02 82.66 126.46 77.93 C 122.29 73.66 118.02 69.50 113.82 65.27 C 112.25 63.61 110.57 61.46 111.04 59.03 C 111.72 56.11 114.30 54.29 116.25 52.23 C 120.37 48.31 124.15 44.03 128.41 40.26 Z" />
<path fill="#000000" opacity="1.00" d=" M 155.45 47.55 C 156.37 45.09 158.91 44.08 161.07 42.99 C 163.05 43.88 165.58 44.26 166.69 46.38 C 172.11 56.55 174.23 68.09 175.00 79.50 L 175.00 81.54 C 174.32 89.68 173.23 97.82 170.62 105.60 C 164.62 124.49 161.67 144.21 160.07 163.93 C 159.88 173.29 158.71 182.62 159.27 191.99 C 159.80 198.82 160.04 205.67 160.45 212.51 C 160.54 215.90 157.51 217.82 154.77 219.00 L 153.28 219.00 C 151.17 217.45 148.04 216.12 148.02 213.03 C 146.13 198.44 146.92 183.65 147.02 168.98 C 148.50 145.65 151.89 122.31 159.03 100.00 C 163.79 85.17 163.00 68.59 156.46 54.43 C 155.63 52.28 154.22 49.83 155.45 47.55 Z" />
<path fill="#000000" opacity="1.00" d=" M 51.45 92.53 C 59.34 90.14 67.57 99.42 64.05 106.97 C 61.74 114.58 50.51 116.58 45.67 110.27 C 40.07 104.61 43.61 93.85 51.45 92.53 Z" />
</g>
</svg>
