<?xml version="1.0" encoding="UTF-8" ?>
<!DOCTYPE svg PUBLIC "-//W3C//DTD SVG 1.1//EN" "http://www.w3.org/Graphics/SVG/1.1/DTD/svg11.dtd">
<svg width="224pt" height="234pt" viewBox="0 0 224 234" version="1.1" xmlns="http://www.w3.org/2000/svg">
<g id="#000000ff">
<path fill="#000000" opacity="1.00" d=" M 71.40 0.99 C 73.86 0.80 76.69 0.42 78.64 2.31 C 84.99 8.35 91.00 14.75 97.33 20.82 C 103.94 14.14 110.47 7.36 117.34 0.95 C 119.09 0.88 120.84 0.88 122.59 0.95 C 129.55 7.29 136.03 14.15 142.68 20.82 C 149.01 14.72 155.06 8.33 161.40 2.25 C 163.32 0.35 166.15 0.85 168.58 0.99 C 170.17 2.66 172.45 4.38 172.05 7.00 C 172.27 9.46 170.33 11.23 168.75 12.80 C 161.53 19.91 154.43 27.14 147.22 34.27 C 145.04 36.60 140.74 36.90 138.57 34.39 C 132.18 28.33 126.12 21.92 119.80 15.79 C 112.87 22.48 106.41 29.68 99.16 36.03 C 97.72 36.01 96.27 36.01 94.83 36.03 C 87.59 29.68 81.13 22.48 74.20 15.79 C 67.12 22.44 60.78 29.90 53.28 36.08 C 51.27 35.96 48.94 36.36 47.37 34.77 C 41.70 29.40 36.33 23.71 30.73 18.27 C 29.04 16.53 26.88 14.68 26.95 12.03 C 26.71 8.46 30.08 5.67 33.42 5.32 C 35.16 5.85 37.03 6.31 38.27 7.75 C 42.67 12.16 47.08 16.57 51.48 20.99 C 58.06 14.26 64.79 7.69 71.40 0.99 Z" />
<path fill="#000000" opacity="1.00" d=" M 161.26 39.29 C 163.24 37.38 166.12 37.91 168.61 37.93 C 169.79 39.24 171.12 40.49 171.86 42.14 C 179.61 58.68 183.89 76.75 185.03 94.95 C 185.32 104.66 185.23 114.37 184.96 124.09 C 183.97 136.73 182.34 149.31 181.14 161.94 C 180.60 168.65 181.66 175.32 182.30 181.98 C 184.19 192.82 187.63 204.25 196.16 211.78 C 201.79 217.73 210.22 219.44 218.08 219.88 C 220.96 219.67 222.93 222.07 224.00 224.46 L 224.00 227.57 C 222.87 229.89 221.00 232.50 218.07 232.17 C 182.70 232.23 147.32 232.22 111.95 232.17 C 107.78 232.75 104.20 228.39 105.53 224.44 C 105.99 221.59 108.78 220.38 111.00 219.10 C 123.43 212.10 133.94 200.84 137.99 186.94 C 139.15 183.51 138.75 179.68 140.40 176.40 C 141.33 174.32 143.80 174.00 145.65 173.13 C 148.77 173.87 152.37 176.31 152.05 179.93 C 150.98 195.34 142.78 209.46 131.68 219.89 C 149.74 219.67 167.80 219.91 185.86 219.76 C 171.47 204.43 167.86 182.22 168.77 161.95 C 168.66 152.63 170.69 143.49 171.23 134.21 C 174.06 109.33 173.68 83.49 165.27 59.61 C 163.51 54.28 160.91 49.27 159.05 43.97 C 159.74 42.40 160.14 40.63 161.26 39.29 Z" />
<path fill="#000000" opacity="1.00" d=" M 112.13 51.90 C 112.01 48.31 115.16 45.79 118.32 44.86 C 122.57 45.92 126.01 48.97 128.37 52.56 C 135.76 62.87 138.37 75.63 139.91 87.97 C 140.43 100.97 140.58 114.08 138.08 126.90 C 133.79 150.58 125.21 174.61 107.96 192.02 C 100.31 199.96 90.80 206.02 80.33 209.48 C 79.87 216.17 80.65 222.92 79.92 229.58 C 78.69 233.15 74.61 233.58 71.39 233.06 C 70.17 231.98 69.04 230.80 68.02 229.53 C 67.65 223.98 67.83 218.42 67.80 212.87 C 59.64 212.79 51.17 212.79 43.61 209.27 C 30.63 203.70 20.90 191.11 19.01 177.08 C 18.66 171.08 18.82 165.06 18.82 159.04 C 14.62 157.98 9.97 157.51 6.74 154.27 C 1.34 149.91 -0.27 142.45 1.21 135.88 C 8.75 113.22 16.22 90.52 23.77 67.86 C 26.10 61.86 29.18 56.15 32.89 50.89 C 35.87 47.35 42.52 48.65 43.74 53.23 C 44.94 56.26 42.70 58.87 41.20 61.27 C 37.28 67.21 34.89 73.97 32.89 80.75 C 26.32 100.34 19.91 119.99 13.38 139.60 C 12.51 142.28 14.69 144.99 17.14 145.86 C 20.42 146.26 23.75 145.77 27.04 146.09 C 28.60 146.78 29.81 148.10 30.80 149.46 C 32.17 159.44 29.82 169.76 32.51 179.61 C 36.00 191.39 47.67 200.15 59.98 200.04 C 70.76 199.94 81.55 196.64 90.43 190.49 C 103.63 181.69 112.08 167.47 117.78 152.99 C 122.79 140.20 125.69 126.65 127.00 113.02 C 127.38 100.99 127.87 88.79 125.19 76.97 C 123.88 71.16 122.04 65.33 118.63 60.38 C 116.62 57.42 112.68 55.73 112.13 51.90 Z" />
<path fill="#000000" opacity="1.00" d=" M 51.37 107.44 C 57.90 105.41 65.29 111.25 65.07 118.05 C 65.44 125.40 56.62 131.51 49.97 128.10 C 44.35 126.11 41.41 118.72 44.29 113.48 C 45.42 110.37 48.36 108.47 51.37 107.44 Z" />
</g>
</svg>
