<?xml version="1.0" encoding="UTF-8" ?>
<!DOCTYPE svg PUBLIC "-//W3C//DTD SVG 1.1//EN" "http://www.w3.org/Graphics/SVG/1.1/DTD/svg11.dtd">
<svg width="207pt" height="268pt" viewBox="0 0 207 268" version="1.1" xmlns="http://www.w3.org/2000/svg">
<g id="#000000ff">
<path fill="#000000" opacity="1.00" d=" M 37.70 37.71 C 55.41 19.71 78.38 6.94 102.94 1.11 C 106.32 0.02 109.60 1.89 111.00 4.99 C 127.02 40.62 143.08 76.24 159.06 111.89 C 164.51 123.22 158.24 138.20 146.46 142.43 C 138.38 145.93 128.73 143.48 122.36 137.70 C 103.62 120.42 79.79 109.27 55.04 103.74 C 44.20 101.18 33.11 100.03 22.05 99.05 C 17.34 98.78 12.60 99.30 7.90 98.82 C 5.12 98.54 3.32 96.27 1.83 94.16 C 1.93 91.83 2.40 89.55 3.43 87.45 C 11.55 68.91 23.06 51.73 37.70 37.71 M 70.13 47.92 C 68.92 49.33 67.25 50.83 67.73 52.92 C 67.73 55.65 70.21 57.23 72.03 58.84 C 83.22 69.04 94.39 79.24 105.71 89.30 C 106.98 90.68 108.73 91.29 110.47 91.86 C 112.50 90.91 115.07 89.53 115.03 86.94 C 114.96 83.31 111.43 81.33 109.01 79.18 C 97.53 68.77 86.13 58.25 74.49 48.02 C 73.03 47.98 71.58 47.95 70.13 47.92 Z" />
<path fill="#000000" opacity="1.00" d=" M 135.71 39.07 C 157.96 47.83 180.08 56.93 202.31 65.76 C 204.54 66.47 206.00 68.37 207.00 70.39 L 207.00 73.25 C 198.18 97.72 189.48 122.23 180.72 146.73 C 173.11 166.96 169.41 188.47 167.56 209.94 C 166.66 216.69 167.17 223.53 166.41 230.29 C 165.60 237.87 167.13 245.41 167.04 253.00 C 155.36 252.87 143.67 253.28 132.00 252.75 C 132.00 231.74 132.01 210.74 132.00 189.74 C 127.91 189.73 123.83 189.73 119.75 189.75 C 119.71 215.84 119.74 241.92 119.74 268.00 L 17.33 268.00 C 14.25 266.79 13.01 263.62 12.47 260.59 C 8.66 242.58 4.14 224.71 0.62 206.64 C 0.46 206.66 0.15 206.71 0.00 206.73 L 0.00 205.37 C 1.54 202.89 3.45 199.25 7.00 199.98 C 13.99 200.78 20.94 202.15 28.00 202.07 C 28.00 199.15 27.99 196.24 27.99 193.32 C 22.75 193.31 17.59 191.18 14.23 187.09 C 10.01 182.54 8.88 175.70 10.78 169.88 C 17.54 149.46 24.32 129.04 31.14 108.64 C 35.42 108.94 39.66 109.50 43.89 110.22 C 37.14 130.96 30.09 151.61 23.35 172.36 C 22.60 174.69 22.15 177.94 24.57 179.46 C 28.40 182.05 33.35 179.84 37.46 181.45 C 39.91 182.53 40.69 185.42 40.72 187.88 C 40.85 192.31 40.67 196.75 40.74 201.19 C 54.11 199.65 67.38 195.86 79.09 189.14 C 96.70 178.46 106.42 158.70 110.73 139.18 C 113.06 140.88 115.25 142.76 117.38 144.69 C 128.78 155.14 148.11 155.05 159.27 144.30 C 166.60 137.83 170.25 127.74 169.30 118.07 C 168.98 112.05 166.12 106.64 163.69 101.27 C 154.37 80.53 145.02 59.81 135.71 39.07 M 27.08 219.27 C 26.46 221.13 26.09 223.07 26.17 225.04 C 26.26 232.05 26.14 239.07 26.22 246.09 C 26.10 248.24 27.75 250.48 30.06 250.36 C 32.77 250.40 33.89 247.33 33.80 245.05 C 33.83 238.36 33.76 231.67 33.82 224.99 C 33.92 223.05 33.43 221.17 32.81 219.37 C 31.88 218.92 30.96 218.48 30.03 218.03 C 29.05 218.45 28.07 218.86 27.08 219.27 M 58.08 219.26 C 56.89 222.04 57.19 225.09 57.19 228.04 C 57.22 234.51 57.19 240.98 57.20 247.46 C 57.54 248.06 58.22 249.27 58.56 249.88 C 60.89 250.82 64.49 250.08 64.23 246.96 C 64.13 237.83 64.66 228.65 63.91 219.54 C 62.92 219.05 61.94 218.57 60.95 218.08 C 60.00 218.48 59.04 218.87 58.08 219.26 M 89.03 219.11 C 87.04 223.79 88.37 229.02 88.00 233.95 C 88.42 239.28 86.91 244.98 89.23 250.00 C 91.28 250.20 94.63 250.75 95.06 247.94 C 95.49 239.32 95.25 230.65 95.19 222.02 C 95.61 219.83 93.51 219.02 92.07 217.97 C 91.06 218.35 90.04 218.74 89.03 219.11 Z" />
<path fill="#000000" opacity="1.00" d=" M 60.21 142.29 C 66.87 140.07 74.85 145.84 74.19 152.98 C 74.73 160.37 65.80 166.08 59.24 162.82 C 53.44 160.57 51.03 153.21 53.74 147.77 C 55.11 145.20 57.50 143.31 60.21 142.29 Z" />
</g>
</svg>
