<?xml version="1.0" encoding="UTF-8" ?>
<!DOCTYPE svg PUBLIC "-//W3C//DTD SVG 1.1//EN" "http://www.w3.org/Graphics/SVG/1.1/DTD/svg11.dtd">
<svg width="207pt" height="269pt" viewBox="0 0 207 269" version="1.1" xmlns="http://www.w3.org/2000/svg">
<g id="#000000ff">
<path fill="#000000" opacity="1.00" d=" M 38.16 37.25 C 55.61 19.65 78.12 7.24 102.14 1.28 C 103.94 0.95 105.78 0.98 107.61 0.92 C 111.56 4.29 112.85 9.45 115.04 13.95 C 118.27 20.78 121.07 27.81 124.46 34.55 C 150.46 44.82 176.33 55.40 202.29 65.74 C 204.39 66.42 205.79 68.18 207.00 69.93 L 207.00 73.53 C 199.69 93.44 192.72 113.47 185.51 133.42 C 181.64 144.67 177.10 155.73 174.35 167.34 C 169.43 187.51 166.93 208.25 166.69 229.00 C 165.66 237.35 167.21 245.71 167.01 254.09 C 166.79 257.88 168.86 262.04 166.49 265.48 C 164.04 269.52 157.06 268.91 155.43 264.39 C 153.09 250.41 154.29 236.16 153.99 222.05 C 154.72 208.68 156.07 195.32 158.31 182.11 C 163.18 154.79 173.83 129.02 182.91 102.93 C 186.04 93.74 189.77 84.75 192.48 75.43 C 172.18 67.43 151.99 59.18 131.73 51.10 C 140.88 71.36 150.07 91.61 159.07 111.94 C 164.41 123.04 158.49 137.58 147.19 142.20 C 139.58 145.68 130.26 144.14 123.86 138.85 C 120.92 153.70 116.10 168.59 106.72 180.70 C 97.68 193.01 84.63 202.02 70.42 207.36 C 61.33 210.86 51.69 212.70 42.04 213.81 C 33.00 214.50 23.94 214.09 14.89 213.96 C 18.45 227.76 20.97 241.82 24.55 255.61 C 31.07 256.10 37.63 255.66 44.17 255.80 C 44.40 250.17 44.16 244.55 44.28 238.92 C 44.36 236.47 44.86 233.70 46.89 232.09 C 48.71 230.32 51.38 231.00 53.65 230.92 C 54.82 232.50 56.95 233.76 56.97 235.93 C 57.11 242.55 56.93 249.18 57.01 255.81 C 64.00 255.80 71.00 255.80 77.99 255.80 C 78.05 249.50 77.93 243.19 78.01 236.88 C 77.92 233.35 81.42 230.06 85.00 230.83 C 87.91 230.91 90.37 233.29 90.58 236.19 C 91.02 242.71 90.51 249.26 90.83 255.80 C 100.27 255.81 109.72 255.81 119.17 255.80 C 119.40 243.54 119.19 231.28 119.27 219.03 C 119.31 217.06 119.70 215.13 120.04 213.21 C 121.77 211.73 123.38 209.46 125.98 209.92 C 129.14 209.65 132.32 212.72 132.01 215.91 C 131.99 231.29 131.99 246.68 132.01 262.07 C 132.37 265.77 128.52 268.63 125.03 268.17 C 90.69 268.25 56.35 268.17 22.01 268.22 C 19.74 268.10 17.16 268.35 15.29 266.79 C 13.62 265.50 13.15 263.34 12.66 261.42 C 9.02 245.05 5.32 228.69 1.67 212.33 C 1.21 210.36 0.99 208.27 0.00 206.48 L 0.00 205.40 L 0.38 205.15 C 1.53 202.50 3.61 199.39 6.96 199.93 C 13.91 201.04 20.97 201.04 27.96 201.93 C 28.00 199.06 28.01 196.20 28.00 193.34 C 19.85 193.61 12.26 187.56 10.33 179.72 C 9.61 176.19 9.79 172.45 11.05 169.06 C 17.05 151.09 22.95 133.08 28.99 115.12 C 30.73 110.10 32.00 104.93 34.12 100.05 C 31.12 100.05 28.13 99.82 25.17 99.38 C 19.45 98.52 13.66 99.40 7.94 98.82 C 3.69 98.35 0.38 93.55 2.60 89.54 C 10.71 69.95 22.82 51.92 38.16 37.25 M 93.93 16.99 C 75.34 23.50 58.38 34.54 44.77 48.74 C 33.77 59.57 25.25 72.64 17.88 86.12 C 31.24 87.15 44.66 88.14 57.72 91.34 C 84.85 97.35 110.90 109.71 131.32 128.74 C 133.99 131.37 138.09 131.62 141.56 130.82 C 146.92 128.91 149.56 122.56 147.63 117.30 C 132.37 83.13 116.76 49.11 101.68 14.86 C 99.00 15.19 96.47 16.15 93.93 16.99 M 47.23 101.94 C 44.27 107.89 42.72 114.37 40.51 120.61 C 34.64 138.01 28.98 155.48 23.18 172.89 C 22.53 175.07 22.41 177.92 24.40 179.46 C 28.21 182.29 33.33 179.63 37.45 181.50 C 39.53 182.41 40.47 184.82 40.70 186.94 C 40.84 191.67 40.67 196.40 40.75 201.13 C 59.18 199.13 78.16 193.00 91.24 179.27 C 104.39 166.08 110.13 147.44 112.14 129.33 C 95.59 116.86 76.08 108.69 55.97 104.01 C 53.05 103.35 50.07 102.92 47.23 101.94 Z" />
<path fill="#000000" opacity="1.00" d=" M 70.79 47.72 C 73.15 45.55 76.79 45.79 79.15 47.82 C 88.08 56.26 97.47 64.22 106.38 72.69 C 110.64 76.41 115.32 79.93 118.57 84.60 C 121.21 90.27 112.99 95.99 108.55 91.57 C 95.39 79.56 81.94 67.84 69.01 55.57 C 68.80 52.89 68.21 49.49 70.79 47.72 Z" />
<path fill="#000000" opacity="1.00" d=" M 60.27 142.34 C 66.93 140.03 74.85 145.94 74.21 153.02 C 74.76 160.66 65.11 166.52 58.57 162.52 C 52.45 159.73 50.77 150.99 55.01 145.94 C 56.36 144.26 58.29 143.14 60.27 142.34 Z" />
</g>
</svg>
